<?xml version="1.0" encoding="utf-8"?>
<!-- Generator: Adobe Illustrator 21.1.0, SVG Export Plug-In . SVG Version: 6.00 Build 0)  -->
<svg version="1.1" id="Layer_1" xmlns="http://www.w3.org/2000/svg" xmlns:xlink="http://www.w3.org/1999/xlink" x="0px" y="0px"
	 viewBox="0 0 409.6 358.5" style="enable-background:new 0 0 409.6 358.5;" xml:space="preserve">
<style type="text/css">
	.st0{fill:#5F6062;}
	.st1{fill:#2FA1DB;}
	.st2{fill:#30A1DB;}
	.st3{fill:#FFFFFF;}
</style>
<rect x="125.1" y="180.2" class="st0" width="30.8" height="92.1"/>
<g>
	<g>
		<path class="st0" d="M163.7,256.8l16.4-19.6c10,7.6,21.4,10.8,32.2,10.8c5.5,0,7.9-1.4,7.9-3.9v-0.3c0-2.6-2.9-4.1-12.8-6
			c-20.7-4.2-38.8-10.1-38.8-29.6v-0.3c0-17.5,13.7-31,39.1-31c17.8,0,30.9,4.2,41.6,12.6l-15,20.8c-8.7-6.3-19.1-9.1-27.6-9.1
			c-4.6,0-6.7,1.6-6.7,3.8v0.3c0,2.5,2.5,4.1,12.2,5.9c23.5,4.3,39.3,11.2,39.3,29.7v0.3c0,19.3-15.9,31.2-40.6,31.2
			C192.3,272.3,175.4,267,163.7,256.8"/>
		<path class="st0" d="M300,223.6c7.9,0,13.1-3.6,13.1-10.1v-0.3c0-6.7-4.9-10.1-13-10.1h-8.4v20.5H300z M260.9,178.5h41.4
			c24.5,0,41.2,10.9,41.2,32.7v0.3c0,22.2-17,34.1-41.8,34.1h-10v25h-30.8V178.5z"/>
	</g>
</g>
<g>
	<g>
		<path class="st1" d="M379.1,54.5h-5.9v65.3c0,10.2-5.9,19.4-17.8,19.4H239.2v3.1c0,9,10.2,18.1,20.7,18.1h88.9l34,20l-4.9-20h1.3
			c10.5,0,15.2-9.1,15.2-18.1V70C394.4,61,389.6,54.5,379.1,54.5"/>
		<path class="st1" d="M314.8,78.2c-6.7,0-12.2-5.5-12.2-12.2c0-6.7,5.5-12.2,12.2-12.2c6.7,0,12.2,5.5,12.2,12.2
			C327,72.8,321.5,78.2,314.8,78.2 M269.2,78.2c-6.7,0-12.2-5.5-12.2-12.2c0-6.7,5.5-12.2,12.2-12.2c6.7,0,12.2,5.5,12.2,12.2
			C281.4,72.8,275.9,78.2,269.2,78.2 M223.6,78.2c-6.7,0-12.2-5.5-12.2-12.2c0-6.7,5.5-12.2,12.2-12.2c6.7,0,12.2,5.5,12.2,12.2
			C235.8,72.8,230.4,78.2,223.6,78.2 M338.1,9.2H203c-11.9,0-25.6,10.6-25.6,20.7v81.8c0,9.4,11.6,16.1,22.7,17.2l-7.2,27.4
			l46.3-27.3h98.8c11.9,0,22.8-7.2,22.8-17.4V29.9C360.9,19.7,349.9,9.2,338.1,9.2"/>
	</g>
</g>
<path class="st2" d="M272.8,292.9h-2.3c-1.6,0-3.2,0-4.9-0.1l0,0.1H35.3c-16,0-29.1,13.1-29.1,29.1v0c0,16,13.1,29.1,29.1,29.1
	h212.4l0.1-0.1c43.7,1.3,83-21.8,107.2-58.1c15-22.5,24.3-50.1,25.2-80.2C371.4,251.6,338.8,292,272.8,292.9z"/>
<path class="st0" d="M35.3,287.1h1v-60.5l21.2,32.7H58l21.2-32.7v45.6h30.6v-92.1H77.7L58,212.6l-19.7-32.4H6.2v125
	C11.5,294.5,22.5,287.1,35.3,287.1z"/>
<g>
	<g>
		<path class="st3" d="M42.8,333.1c-1,0.5-3.3,1.1-6.3,1.1c-8.5,0-12.9-5.3-12.9-12.4c0-8.4,6-13.1,13.5-13.1c2.9,0,5.1,0.6,6.1,1.1
			l-1.1,4.4c-1.1-0.5-2.7-0.9-4.7-0.9c-4.4,0-7.9,2.7-7.9,8.2c0,4.9,2.9,8.1,7.9,8.1c1.7,0,3.6-0.4,4.7-0.8L42.8,333.1z"/>
		<path class="st3" d="M69.1,321.2c0,8.1-4.9,13-12.1,13c-7.3,0-11.6-5.5-11.6-12.6c0-7.4,4.7-12.9,12-12.9
			C64.9,308.7,69.1,314.4,69.1,321.2z M51.2,321.5c0,4.8,2.3,8.2,6,8.2c3.8,0,5.9-3.6,5.9-8.4c0-4.4-2.1-8.2-6-8.2
			C53.4,313.1,51.2,316.7,51.2,321.5z"/>
		<path class="st3" d="M72.7,309.4c1.8-0.3,4.5-0.5,7.4-0.5c3.7,0,6.2,0.6,8,1.9c1.5,1.2,2.3,2.9,2.3,5.2c0,3.2-2.2,5.3-4.4,6.1v0.1
			c1.7,0.7,2.7,2.3,3.3,4.6c0.8,2.8,1.5,6,2,7h-5.7c-0.4-0.7-1-2.7-1.7-5.8c-0.7-3.1-1.7-3.9-4-4h-1.7v9.7h-5.5V309.4z M78.3,320
			h2.2c2.8,0,4.4-1.4,4.4-3.6c0-2.3-1.5-3.4-4.1-3.4c-1.4,0-2.1,0.1-2.5,0.2V320z"/>
		<path class="st3" d="M109.2,323.3h-9.1v5.9h10.2v4.6H94.5v-24.7h15.2v4.6h-9.6v5.1h9.1V323.3z"/>
		<path class="st3" d="M121.6,328c1.5,0.8,3.8,1.5,6.2,1.5c2.6,0,3.9-1.1,3.9-2.7c0-1.5-1.2-2.4-4.1-3.5c-4.1-1.4-6.8-3.7-6.8-7.3
			c0-4.2,3.5-7.4,9.3-7.4c2.8,0,4.8,0.6,6.3,1.2l-1.2,4.5c-1-0.5-2.7-1.2-5.2-1.2c-2.4,0-3.6,1.1-3.6,2.4c0,1.6,1.4,2.3,4.6,3.5
			c4.4,1.6,6.4,3.9,6.4,7.4c0,4.1-3.2,7.7-10,7.7c-2.8,0-5.6-0.7-7-1.5L121.6,328z"/>
		<path class="st3" d="M163.8,321.2c0,8.1-4.9,13-12.1,13c-7.3,0-11.6-5.5-11.6-12.6c0-7.4,4.7-12.9,12-12.9
			C159.7,308.7,163.8,314.4,163.8,321.2z M146,321.5c0,4.8,2.3,8.2,6,8.2c3.8,0,5.9-3.6,5.9-8.4c0-4.4-2.1-8.2-6-8.2
			C148.2,313.1,146,316.7,146,321.5z"/>
		<path class="st3" d="M167.5,309.1h15.1v4.6h-9.5v5.6h8.9v4.5h-8.9v9.9h-5.6V309.1z"/>
		<path class="st3" d="M191.5,313.8h-6.6v-4.7h19v4.7h-6.7v20h-5.6V313.8z"/>
		<path class="st3" d="M210.9,333.8l-5.9-24.7h6l1.9,10.2c0.6,2.9,1.1,6.1,1.5,8.6h0.1c0.4-2.7,1-5.6,1.6-8.7l2.1-10.1h5.9l2,10.4
			c0.6,2.9,1,5.5,1.3,8.3h0.1c0.4-2.7,0.9-5.6,1.4-8.6l2-10.1h5.7l-6.4,24.7h-6l-2.1-10.6c-0.5-2.5-0.9-4.8-1.2-7.6h-0.1
			c-0.4,2.8-0.8,5.1-1.4,7.6l-2.3,10.6H210.9z"/>
		<path class="st3" d="M245.1,327.4l-1.8,6.3h-5.8l7.5-24.7h7.3l7.7,24.7h-6l-1.9-6.3H245.1z M251.4,323.3l-1.5-5.2
			c-0.4-1.5-0.9-3.3-1.2-4.8h-0.1c-0.4,1.5-0.7,3.3-1.1,4.8l-1.5,5.2H251.4z"/>
		<path class="st3" d="M263.4,309.4c1.8-0.3,4.5-0.5,7.4-0.5c3.7,0,6.2,0.6,8,1.9c1.5,1.2,2.3,2.9,2.3,5.2c0,3.2-2.2,5.3-4.4,6.1
			v0.1c1.7,0.7,2.7,2.3,3.3,4.6c0.8,2.8,1.5,6,2,7h-5.7c-0.4-0.7-1-2.7-1.7-5.8c-0.7-3.1-1.7-3.9-4-4H269v9.7h-5.5V309.4z M269,320
			h2.2c2.8,0,4.4-1.4,4.4-3.6c0-2.3-1.5-3.4-4.1-3.4c-1.4,0-2.1,0.1-2.5,0.2V320z"/>
		<path class="st3" d="M299.8,323.3h-9.1v5.9h10.2v4.6h-15.8v-24.7h15.2v4.6h-9.6v5.1h9.1V323.3z"/>
	</g>
</g>
</svg>
