<?xml version="1.0" encoding="utf-8"?>
<!-- Generator: Adobe Illustrator 21.1.0, SVG Export Plug-In . SVG Version: 6.00 Build 0)  -->
<svg version="1.1" id="Layer_1" xmlns="http://www.w3.org/2000/svg" xmlns:xlink="http://www.w3.org/1999/xlink" x="0px" y="0px"
	 viewBox="0 0 409.6 358.5" style="enable-background:new 0 0 409.6 358.5;" xml:space="preserve">
<style type="text/css">
	.st0{fill:#5F6062;}
	.st1{fill:#2FA1DB;}
	.st2{fill:#30A1DB;}
	.st3{fill:#FFFFFF;}
</style>
<rect x="132.4" y="180.8" class="st0" width="30.8" height="92.1"/>
<g>
	<g>
		<path class="st0" d="M171.1,257.4l16.4-19.6c10,7.6,21.4,10.8,32.2,10.8c5.5,0,7.9-1.4,7.9-3.9v-0.3c0-2.6-2.9-4.1-12.8-6
			c-20.7-4.2-38.8-10.1-38.8-29.6v-0.3c0-17.5,13.7-31,39.1-31c17.8,0,30.9,4.2,41.6,12.6l-15,20.8c-8.7-6.3-19.1-9.1-27.6-9.1
			c-4.6,0-6.7,1.6-6.7,3.8v0.3c0,2.5,2.5,4.1,12.2,5.9c23.5,4.3,39.3,11.2,39.3,29.7v0.3c0,19.3-15.9,31.2-40.6,31.2
			C199.7,272.9,182.8,267.6,171.1,257.4"/>
		<path class="st0" d="M307.4,224.2c7.9,0,13.1-3.6,13.1-10.1v-0.3c0-6.7-4.9-10.1-13-10.1h-8.4v20.5H307.4z M268.3,179.1h41.4
			c24.5,0,41.2,10.9,41.2,32.7v0.3c0,22.2-17,34.1-41.8,34.1h-10v25h-30.8V179.1z"/>
	</g>
</g>
<g>
	<g>
		<path class="st1" d="M386.5,55.1h-5.9v65.3c0,10.2-5.9,19.4-17.8,19.4H246.6v3.1c0,9,10.2,18.1,20.7,18.1h88.9l34,20l-4.9-20h1.3
			c10.5,0,15.2-9.1,15.2-18.1V70.6C401.7,61.6,397,55.1,386.5,55.1"/>
		<path class="st1" d="M322.2,78.8c-7.6,0-13.5-6.9-11.9-14.8c0.9-4.6,4.6-8.3,9.2-9.3c7.9-1.7,14.9,4.3,14.9,11.9
			C334.3,73.4,328.9,78.8,322.2,78.8 M276.6,78.8c-7.6,0-13.6-7-11.9-14.8c1-4.6,4.7-8.3,9.3-9.3c7.9-1.6,14.8,4.3,14.8,11.9
			C288.8,73.4,283.3,78.8,276.6,78.8 M231,78.8c-7.6,0-13.6-7-11.9-14.8c1-4.6,4.7-8.3,9.3-9.3c7.9-1.6,14.8,4.3,14.8,11.9
			C243.2,73.4,237.8,78.8,231,78.8 M345.4,9.8h-135c-11.9,0-25.6,10.6-25.6,20.7v81.8c0,9.4,11.6,16.1,22.7,17.2l-7.2,27.4
			l46.3-27.3h98.8c11.9,0,22.8-7.2,22.8-17.4V30.5C368.3,20.3,357.3,9.8,345.4,9.8"/>
	</g>
</g>
<path class="st2" d="M280.1,293.5h-2.3c-1.6,0-3.2,0-4.9-0.1l0,0.1H42.7c-16,0-29.1,13.1-29.1,29.1v0c0,16,13.1,29.1,29.1,29.1
	h212.4l0.1-0.1c43.7,1.3,83-21.8,107.2-58.1c15-22.5,24.3-50.1,25.2-80.2C378.8,252.2,346.2,292.6,280.1,293.5z"/>
<path class="st0" d="M42.7,287.7h1v-60.5L64.9,260h0.5l21.2-32.7v45.6h30.6v-92.1H85.1l-19.7,32.4l-19.7-32.4H13.6v125
	C18.9,295.1,29.9,287.7,42.7,287.7z"/>
<g>
	<g>
		<path class="st3" d="M64,338.1c-1.2,0.6-4,1.3-7.5,1.3c-10.1,0-15.4-6.3-15.4-14.7c0-10,7.1-15.6,16-15.6c3.4,0,6,0.7,7.2,1.3
			l-1.3,5.3c-1.3-0.6-3.2-1.1-5.6-1.1c-5.3,0-9.4,3.2-9.4,9.7c0,5.9,3.5,9.6,9.4,9.6c2,0,4.2-0.4,5.5-1L64,338.1z"/>
		<path class="st3" d="M96.2,324c0,9.6-5.8,15.4-14.4,15.4c-8.7,0-13.8-6.6-13.8-14.9c0-8.8,5.6-15.4,14.3-15.4
			C91.3,309.2,96.2,315.9,96.2,324z M75,324.4c0,5.7,2.7,9.8,7.1,9.8c4.5,0,7-4.3,7-10c0-5.3-2.5-9.8-7.1-9.8
			C77.6,314.4,75,318.7,75,324.4z"/>
		<path class="st3" d="M126.4,327.7c-0.1-3.5-0.3-7.8-0.3-12H126c-0.9,3.7-2.1,7.9-3.3,11.4l-3.6,11.4H114l-3.1-11.4
			c-1-3.4-2-7.6-2.7-11.4h-0.1c-0.2,4-0.3,8.5-0.5,12.1l-0.5,11.1h-6.1l1.9-29.3h8.8l2.9,9.8c0.9,3.4,1.8,7,2.5,10.5h0.1
			c0.8-3.4,1.8-7.3,2.8-10.5l3.1-9.7h8.7l1.6,29.3h-6.5L126.4,327.7z"/>
		<path class="st3" d="M164.2,327.7c-0.1-3.5-0.3-7.8-0.3-12h-0.1c-0.9,3.7-2.1,7.9-3.3,11.4l-3.6,11.4h-5.2l-3.1-11.4
			c-1-3.4-2-7.6-2.7-11.4H146c-0.2,4-0.3,8.5-0.5,12.1l-0.5,11.1h-6.1l1.9-29.3h8.8l2.9,9.8c0.9,3.4,1.8,7,2.5,10.5h0.1
			c0.8-3.4,1.8-7.3,2.8-10.5l3.1-9.7h8.7l1.6,29.3h-6.5L164.2,327.7z"/>
		<path class="st3" d="M183.9,309.6v16.9c0,5,1.9,7.6,5.3,7.6c3.5,0,5.4-2.4,5.4-7.6v-16.9h6.6v16.4c0,9-4.6,13.4-12.2,13.4
			c-7.4,0-11.7-4.1-11.7-13.4v-16.4H183.9z"/>
		<path class="st3" d="M208,339v-29.3h7.7l6.1,10.7c1.7,3.1,3.5,6.7,4.8,10h0.1c-0.4-3.9-0.6-7.8-0.6-12.2v-8.6h6.1V339h-7
			l-6.3-11.3c-1.7-3.1-3.7-6.9-5.1-10.4l-0.1,0c0.2,3.9,0.3,8,0.3,12.8v8.8H208z"/>
		<path class="st3" d="M245.7,309.6V339h-6.7v-29.3H245.7z"/>
		<path class="st3" d="M258.2,315.2h-7.9v-5.6h22.5v5.6h-8V339h-6.7V315.2z"/>
		<path class="st3" d="M284.2,339v-12l-9.3-17.3h7.6l3,7c0.9,2.1,1.5,3.7,2.3,5.6h0.1c0.7-1.8,1.3-3.5,2.2-5.6l3-7h7.4l-9.7,17.1
			V339H284.2z"/>
	</g>
</g>
</svg>
