<?xml version="1.0" encoding="utf-8"?>
<!-- Generator: Adobe Illustrator 21.1.0, SVG Export Plug-In . SVG Version: 6.00 Build 0)  -->
<svg version="1.1" id="Layer_1" xmlns="http://www.w3.org/2000/svg" xmlns:xlink="http://www.w3.org/1999/xlink" x="0px" y="0px"
	 viewBox="0 0 409.6 358.5" style="enable-background:new 0 0 409.6 358.5;" xml:space="preserve">
<style type="text/css">
	.st0{fill:#5F6062;}
	.st1{fill:#2FA1DB;}
	.st2{fill:#30A1DB;}
	.st3{fill:#FFFFFF;}
</style>
<rect x="132.4" y="179.2" class="st0" width="30.8" height="92.1"/>
<g>
	<g>
		<path class="st0" d="M171.1,255.7l16.4-19.6c10,7.6,21.4,10.8,32.2,10.8c5.5,0,7.9-1.4,7.9-3.9v-0.3c0-2.6-2.9-4.1-12.8-6
			c-20.7-4.2-38.8-10.1-38.8-29.6v-0.3c0-17.5,13.7-31,39.1-31c17.8,0,30.9,4.2,41.6,12.6l-15,20.8c-8.7-6.3-19.1-9.1-27.6-9.1
			c-4.6,0-6.7,1.6-6.7,3.8v0.3c0,2.5,2.5,4.1,12.2,5.9c23.5,4.3,39.3,11.2,39.3,29.7v0.3c0,19.3-15.9,31.2-40.6,31.2
			C199.7,271.2,182.8,266,171.1,255.7"/>
		<path class="st0" d="M307.4,222.6c7.9,0,13.1-3.6,13.1-10.1v-0.3c0-6.7-4.9-10.1-13-10.1h-8.4v20.5H307.4z M268.3,177.5h41.4
			c24.5,0,41.2,10.9,41.2,32.7v0.3c0,22.2-17,34.1-41.8,34.1h-10v25h-30.8V177.5z"/>
	</g>
</g>
<g>
	<g>
		<path class="st1" d="M386.5,53.5h-5.9v65.3c0,10.2-5.9,19.4-17.8,19.4H246.6v3.1c0,9,10.2,18.1,20.7,18.1h88.9l34,20l-4.9-20h1.3
			c10.5,0,15.2-9.1,15.2-18.1V69C401.7,60,397,53.5,386.5,53.5"/>
		<path class="st1" d="M322.2,77.2c-7.6,0-13.5-6.9-11.9-14.8c0.9-4.6,4.6-8.3,9.2-9.3c7.9-1.7,14.9,4.3,14.9,11.9
			C334.3,71.7,328.9,77.2,322.2,77.2 M276.6,77.2c-7.6,0-13.6-7-11.9-14.8c1-4.6,4.7-8.3,9.3-9.3c7.9-1.6,14.8,4.3,14.8,11.9
			C288.8,71.7,283.3,77.2,276.6,77.2 M231,77.2c-7.6,0-13.6-7-11.9-14.8c1-4.6,4.7-8.3,9.3-9.3c7.9-1.6,14.8,4.3,14.8,11.9
			C243.2,71.7,237.8,77.2,231,77.2 M345.4,8.1h-135c-11.9,0-25.6,10.6-25.6,20.7v81.8c0,9.4,11.6,16.1,22.7,17.2l-7.2,27.4
			l46.3-27.3h98.8c11.9,0,22.8-7.2,22.8-17.4V28.8C368.3,18.7,357.3,8.1,345.4,8.1"/>
	</g>
</g>
<path class="st2" d="M280.1,291.8h-2.3c-1.6,0-3.2,0-4.9-0.1l0,0.1H42.7c-16,0-29.1,13.1-29.1,29.1v0c0,16,13.1,29.1,29.1,29.1
	h212.4l0.1-0.1c43.7,1.3,83-21.8,107.2-58.1c15-22.5,24.3-50.1,25.2-80.2C378.8,250.5,346.2,291,280.1,291.8z"/>
<path class="st0" d="M42.7,286.1h1v-60.5l21.2,32.7h0.5l21.2-32.7v45.6h30.6v-92.1H85.1l-19.7,32.4l-19.7-32.4H13.6v125
	C18.9,293.5,29.9,286.1,42.7,286.1z"/>
<g>
	<g>
		<path class="st3" d="M51.8,330.5c1.8,0.9,4.5,1.8,7.4,1.8c3,0,4.7-1.3,4.7-3.2c0-1.8-1.4-2.9-4.9-4.1c-4.9-1.7-8-4.4-8-8.7
			c0-5,4.2-8.8,11.1-8.8c3.3,0,5.7,0.7,7.5,1.5l-1.5,5.4c-1.2-0.6-3.3-1.4-6.1-1.4c-2.9,0-4.3,1.3-4.3,2.8c0,1.9,1.7,2.7,5.4,4.1
			c5.2,1.9,7.6,4.6,7.6,8.7c0,4.9-3.8,9.1-11.8,9.1c-3.3,0-6.7-0.9-8.3-1.8L51.8,330.5z"/>
		<path class="st3" d="M81.8,313.6h-7.9V308h22.5v5.6h-8v23.7h-6.7V313.6z"/>
		<path class="st3" d="M107.8,329.8l-2.1,7.5h-6.9l9-29.3h8.7l9.1,29.3h-7.1l-2.3-7.5H107.8z M115.3,324.8l-1.8-6.2
			c-0.5-1.7-1-3.9-1.5-5.7h-0.1c-0.4,1.7-0.9,4-1.3,5.7l-1.7,6.2H115.3z"/>
		<path class="st3" d="M130.6,337.3V308h7.7l6.1,10.7c1.7,3.1,3.5,6.7,4.8,10h0.1c-0.4-3.9-0.6-7.8-0.6-12.2V308h6.1v29.3h-7
			l-6.3-11.3c-1.7-3.1-3.7-6.9-5.1-10.4l-0.1,0c0.2,3.9,0.3,8,0.3,12.8v8.8H130.6z"/>
		<path class="st3" d="M161.7,308.4c2.4-0.4,5.6-0.6,9-0.6c5.6,0,9.2,1,12,3.1c3,2.3,5,5.9,5,11c0,5.6-2,9.5-4.9,11.9
			c-3.1,2.6-7.8,3.8-13.5,3.8c-3.4,0-5.9-0.2-7.5-0.4V308.4z M168.3,332.3c0.6,0.1,1.5,0.1,2.3,0.1c6,0,9.9-3.3,9.9-10.3
			c0-6.1-3.5-9.3-9.2-9.3c-1.5,0-2.4,0.1-3,0.3V332.3z"/>
		<path class="st3" d="M199.8,329.8l-2.1,7.5h-6.9l9-29.3h8.7l9.1,29.3h-7.1l-2.3-7.5H199.8z M207.2,324.8l-1.8-6.2
			c-0.5-1.7-1-3.9-1.5-5.7h-0.1c-0.4,1.7-0.9,4-1.3,5.7l-1.7,6.2H207.2z"/>
		<path class="st3" d="M222.6,308.4c2.1-0.3,5.3-0.6,8.8-0.6c4.3,0,7.4,0.7,9.5,2.3c1.7,1.4,2.7,3.4,2.7,6.1c0,3.7-2.7,6.3-5.2,7.2
			v0.1c2,0.8,3.2,2.8,3.9,5.5c0.9,3.3,1.8,7.1,2.4,8.3h-6.8c-0.5-0.8-1.2-3.2-2-6.8c-0.8-3.7-2-4.7-4.7-4.7h-2v11.5h-6.6V308.4z
			 M229.1,321h2.6c3.3,0,5.3-1.7,5.3-4.2c0-2.7-1.8-4-4.9-4.1c-1.6,0-2.5,0.1-3,0.2V321z"/>
		<path class="st3" d="M249.4,308.4c2.4-0.4,5.6-0.6,9-0.6c5.6,0,9.2,1,12,3.1c3,2.3,5,5.9,5,11c0,5.6-2,9.5-4.9,11.9
			c-3.1,2.6-7.8,3.8-13.5,3.8c-3.4,0-5.9-0.2-7.5-0.4V308.4z M256.1,332.3c0.6,0.1,1.5,0.1,2.3,0.1c6,0,9.9-3.3,9.9-10.3
			c0-6.1-3.5-9.3-9.2-9.3c-1.5,0-2.4,0.1-3,0.3V332.3z"/>
	</g>
</g>
</svg>
