<?xml version="1.0" encoding="UTF-8" standalone="no"?>
<!-- Created with Inkscape (http://www.inkscape.org/) -->

<svg
   xmlns:dc="http://purl.org/dc/elements/1.1/"
   xmlns:cc="http://creativecommons.org/ns#"
   xmlns:rdf="http://www.w3.org/1999/02/22-rdf-syntax-ns#"
   xmlns:svg="http://www.w3.org/2000/svg"
   xmlns="http://www.w3.org/2000/svg"
   xmlns:sodipodi="http://sodipodi.sourceforge.net/DTD/sodipodi-0.dtd"
   xmlns:inkscape="http://www.inkscape.org/namespaces/inkscape"
   sodipodi:docname="misp-logo-bw.pdf"
   viewBox="0 0 255.58075 187.30956"
   height="187.30956"
   width="255.58075"
   xml:space="preserve"
   id="svg2423"
   version="1.1"
   inkscape:version="0.92.3 (2405546, 2018-03-11)"><metadata
     id="metadata2429"><rdf:RDF><cc:Work
         rdf:about=""><dc:format>image/svg+xml</dc:format><dc:type
           rdf:resource="http://purl.org/dc/dcmitype/StillImage" /><dc:title></dc:title></cc:Work></rdf:RDF></metadata><defs
     id="defs2427"><clipPath
       clipPathUnits="userSpaceOnUse"
       id="clipPath2447"><path
         d="M 0,0 H 192 V 141 H 0 Z"
         id="path2445"
         inkscape:connector-curvature="0" /></clipPath><clipPath
       clipPathUnits="userSpaceOnUse"
       id="clipPath2475"><path
         d="M 0,0 H 192 V 141 H 0 Z"
         id="path2473"
         inkscape:connector-curvature="0" /></clipPath><filter
       style="color-interpolation-filters:sRGB;"
       inkscape:label="Greyscale"
       id="filter2551"><feColorMatrix
         values="0.21 0.72 0.072 0 0 0.21 0.72 0.072 0 0 0.21 0.72 0.072 0 0 0 0 0 1 0 "
         id="feColorMatrix2549" /></filter><filter
       style="color-interpolation-filters:sRGB;"
       inkscape:label="Greyscale"
       id="filter2555"><feColorMatrix
         values="0.21 0.72 0.072 0 0 0.21 0.72 0.072 0 0 0.21 0.72 0.072 0 0 0 0 0 1 0 "
         id="feColorMatrix2553" /></filter><filter
       style="color-interpolation-filters:sRGB;"
       inkscape:label="Greyscale"
       id="filter2559"><feColorMatrix
         values="0.21 0.72 0.072 0 0 0.21 0.72 0.072 0 0 0.21 0.72 0.072 0 0 0 0 0 1 0 "
         id="feColorMatrix2557" /></filter><filter
       style="color-interpolation-filters:sRGB;"
       inkscape:label="Greyscale"
       id="filter2563"><feColorMatrix
         values="0.21 0.72 0.072 0 0 0.21 0.72 0.072 0 0 0.21 0.72 0.072 0 0 0 0 0 1 0 "
         id="feColorMatrix2561" /></filter></defs><sodipodi:namedview
     inkscape:current-layer="g2431"
     inkscape:window-maximized="1"
     inkscape:window-y="27"
     inkscape:window-x="0"
     inkscape:cy="93.654778"
     inkscape:cx="127.79037"
     inkscape:zoom="1.2599464"
     showgrid="false"
     id="namedview2425"
     inkscape:window-height="1025"
     inkscape:window-width="1920"
     inkscape:pageshadow="2"
     inkscape:pageopacity="0"
     guidetolerance="10"
     gridtolerance="10"
     objecttolerance="10"
     borderopacity="1"
     bordercolor="#666666"
     pagecolor="#ffffff" /><g
     id="g2431"
     inkscape:groupmode="layer"
     inkscape:label="misp"
     transform="matrix(1.3333333,0,0,-1.3333333,0,187.30955)"><g
       id="g2433"
       style="filter:url(#filter2563);fill:#000000"><path
         d="m 0,65.775 h 14.016 l 8.613,-14.129 8.617,14.129 H 45.258 V 25.572 H 31.875 v 19.93 L 22.629,31.201 H 22.398 L 13.152,45.502 V 25.572 H 0 Z"
         style="fill:#000000;fill-opacity:1;fill-rule:nonzero;stroke:none"
         id="path2435"
         inkscape:connector-curvature="0" /><path
         d="M 51.914,65.775 H 65.352 V 25.572 H 51.914 Z"
         style="fill:#000000;fill-opacity:1;fill-rule:nonzero;stroke:none"
         id="path2437"
         inkscape:connector-curvature="0" /></g><g
       id="g2439"
       style="filter:url(#filter2559);fill:#000000"><g
         id="g2441"
         transform="translate(0,-0.517838)"
         style="fill:#000000"><g
           id="g2443"
           style="fill:#000000" /><g
           id="g2459"
           style="fill:#000000"><g
             clip-path="url(#clipPath2447)"
             id="g2457"
             style="fill:#000000"><g
               id="g2449"
               style="fill:#000000" /><g
               id="g2455"
               style="fill:#000000"><path
                 d="m 68.809,32.867 7.179,8.559 c 4.364,-3.332 9.36,-4.711 14.071,-4.711 2.41,0 3.445,0.633 3.445,1.723 v 0.117 c 0,1.148 -1.262,1.777 -5.57,2.64 -9.02,1.836 -16.942,4.422 -16.942,12.922 v 0.113 c 0,7.641 5.973,13.559 17.055,13.559 7.754,0 13.5,-1.84 18.152,-5.516 l -6.547,-9.074 c -3.793,2.758 -8.328,3.961 -12.062,3.961 -2.012,0 -2.93,-0.687 -2.93,-1.664 v -0.113 c 0,-1.094 1.09,-1.781 5.34,-2.586 10.281,-1.895 17.172,-4.883 17.172,-12.981 v -0.113 c 0,-8.445 -6.949,-13.613 -17.746,-13.613 -8.156,0 -15.508,2.297 -20.617,6.777"
                 style="fill:#000000;fill-opacity:1;fill-rule:nonzero;stroke:none"
                 id="path2451"
                 inkscape:connector-curvature="0" /><path
                 d="m 111.25,67.039 h 18.09 c 10.683,0 17.976,-4.766 17.976,-14.301 v -0.113 c 0,-9.707 -7.41,-14.875 -18.261,-14.875 h -4.367 V 26.836 H 111.25 Z M 128.309,47.34 c 3.445,0 5.742,1.551 5.742,4.422 v 0.117 c 0,2.926 -2.125,4.422 -5.688,4.422 h -3.675 V 47.34 Z"
                 style="fill:#000000;fill-opacity:1;fill-rule:nonzero;stroke:none"
                 id="path2453"
                 inkscape:connector-curvature="0" /></g></g></g></g></g><g
       id="g2461"
       style="filter:url(#filter2555);fill:#000000"><text
         transform="matrix(1,0,0,-1,4.41369,4.834375)"
         style="font-variant:normal;font-weight:bold;font-size:22.39999962px;font-family:'DejaVu Sans Bold';-inkscape-font-specification:DejaVuSans-Bold;writing-mode:lr-tb;fill:#000000;fill-opacity:1;fill-rule:nonzero;stroke:none"
         id="text2465"><tspan
           x="0 15.2768 31.203199 42.268799 57.456001 72.575996 83.283203 91.0784 107.2064 123.1552 138.27521 149.34081 157.024 172.97279"
           y="0"
           sodipodi:role="line"
           id="tspan2463">Threat Sharing</tspan></text>
</g><g
       id="g2467"
       style="filter:url(#filter2551);fill:#000000"><g
         id="g2469"
         transform="translate(0,-0.517838)"
         style="fill:#000000"><g
           id="g2471"
           style="fill:#000000" /><g
           id="g2485"
           style="fill:#000000"><g
             clip-path="url(#clipPath2475)"
             id="g2483"
             style="fill:#000000"><g
               id="g2481"
               style="fill:#000000"><path
                 d="m 162.879,121.191 h -2.594 V 92.68 c 0,-4.442 -2.582,-8.457 -7.765,-8.457 h -50.77 v -1.356 c 0,-3.929 4.465,-7.887 9.051,-7.887 h 38.816 l 14.848,-8.73 -2.156,8.73 h 0.57 c 4.582,0 6.648,3.958 6.648,7.887 v 31.555 c 0,3.926 -2.066,6.769 -6.648,6.769"
                 style="fill:#000000;fill-opacity:1;fill-rule:nonzero;stroke:none"
                 id="path2477"
                 inkscape:connector-curvature="0" /><path
                 d="M 144.941,141 H 85.977 c -5.192,0 -11.161,-4.609 -11.161,-9.051 V 96.211 c 0,-4.09 5.059,-7.043 9.911,-7.496 L 81.57,76.727 101.805,88.629 h 43.136 c 5.184,0 9.973,3.144 9.973,7.582 v 35.738 c 0,4.442 -4.789,9.051 -9.973,9.051 M 94.969,110.832 c -2.942,0 -5.324,2.387 -5.324,5.328 0,2.942 2.382,5.328 5.324,5.328 2.941,0 5.328,-2.386 5.328,-5.328 0,-2.941 -2.387,-5.328 -5.328,-5.328 m 19.898,0 c -2.941,0 -5.328,2.387 -5.328,5.328 0,2.942 2.387,5.328 5.328,5.328 2.942,0 5.324,-2.386 5.324,-5.328 0,-2.941 -2.382,-5.328 -5.324,-5.328 m 19.899,0 c -2.946,0 -5.332,2.387 -5.332,5.328 0,2.942 2.386,5.328 5.332,5.328 2.933,0 5.324,-2.386 5.324,-5.328 0,-2.941 -2.391,-5.328 -5.324,-5.328"
                 style="fill:#000000;fill-opacity:1;fill-rule:nonzero;stroke:none"
                 id="path2479"
                 inkscape:connector-curvature="0" /></g></g></g></g></g></g></svg>