<?xml version="1.0" encoding="utf-8"?>
<!-- Generator: Adobe Illustrator 19.1.0, SVG Export Plug-In . SVG Version: 6.00 Build 0)  -->
<svg version="1.1" xmlns="http://www.w3.org/2000/svg" xmlns:xlink="http://www.w3.org/1999/xlink" x="0px" y="0px"
	 viewBox="0 0 212.6 212.6" style="enable-background:new 0 0 212.6 212.6;" xml:space="preserve">
<style type="text/css">
	.st0{fill:#FFFFFF;}
	
		.st1{display:none;fill:none;stroke:#456D81;stroke-width:0.8301;stroke-linecap:square;stroke-miterlimit:10;stroke-dasharray:0.1876,1.8762;}
	.st2{clip-path:url(#SVGID_2_);}
	.st3{fill:#33A1DB;}
	.st4{fill:#616263;}
</style>
<g id="Layer_1">
	<path class="st0" d="M106.3,212.7C47.6,212.7,0,165.1,0,106.4S47.6,0.1,106.3,0.1c58.7,0,106.3,47.6,106.3,106.3
		S165.1,212.7,106.3,212.7z"/>
	<circle class="st1" cx="106.3" cy="106.8" r="87"/>
	<g>
		<defs>
			<path id="SVGID_1_" d="M106.3,212.7C47.6,212.7,0,165.1,0,106.4S47.6,0.1,106.3,0.1c58.7,0,106.3,47.6,106.3,106.3
				S165.1,212.7,106.3,212.7z"/>
		</defs>
		<clipPath id="SVGID_2_">
			<use xlink:href="#SVGID_1_"  style="overflow:visible;"/>
		</clipPath>
		<g class="st2">
			<path class="st3" d="M106.1,9.9c53.3,0,96.6,43.3,96.6,96.6s-43.3,96.6-96.6,96.6S9.5,159.8,9.5,106.5S52.8,9.9,106.1,9.9
				 M106.1,4.5C49.8,4.5,4.1,50.2,4.1,106.5s45.6,101.9,101.9,101.9S208,162.8,208,106.5S162.4,4.5,106.1,4.5L106.1,4.5z"/>
		</g>
		<g class="st2">
			<path class="st3" d="M106.1,14.3c50.8,0,92.2,41.4,92.2,92.2s-41.4,92.2-92.2,92.2s-92.2-41.4-92.2-92.2S55.2,14.3,106.1,14.3
				 M106.1,13.3c-51.5,0-93.2,41.7-93.2,93.2s41.7,93.2,93.2,93.2s93.2-41.7,93.2-93.2S157.5,13.3,106.1,13.3L106.1,13.3z"/>
		</g>
		<g class="st2">
			<path class="st4" d="M63.6,180c-0.6,0-1.1-0.2-1.6-0.4c-0.5-0.2-1-0.4-1.5-0.7c-0.5-0.3-0.9-0.7-1.2-1.1
				c-0.3-0.4-0.5-0.9-0.7-1.4c-0.1-0.5-0.1-1-0.1-1.5c0.1-0.5,0.3-1,0.6-1.6c0.3-0.5,0.7-0.9,1.1-1.2c0.4-0.3,0.9-0.5,1.4-0.6
				c0.5-0.1,1-0.1,1.5,0s1,0.3,1.5,0.6c0.5,0.3,0.9,0.7,1.3,1.1c0.4,0.4,0.6,0.8,0.7,1.4l-1.7,0.5c-0.1-0.3-0.2-0.6-0.4-0.9
				c-0.2-0.3-0.4-0.5-0.8-0.7c-0.3-0.2-0.6-0.3-0.9-0.4c-0.3-0.1-0.6,0-0.9,0c-0.3,0.1-0.6,0.2-0.8,0.4c-0.3,0.2-0.5,0.4-0.7,0.7
				c-0.2,0.3-0.3,0.6-0.4,0.9c-0.1,0.3-0.1,0.6,0,0.9c0.1,0.3,0.2,0.6,0.4,0.8c0.2,0.3,0.4,0.5,0.7,0.7c0.3,0.2,0.6,0.3,0.9,0.4
				c0.3,0.1,0.5,0.1,0.7,0.1l0.7-1l-1.2-0.7l0.8-1.3l2.5,1.6L63.6,180z"/>
			<path class="st4" d="M68.4,174.6l1.5,0.8l-3.6,6.7l-1.5-0.8L68.4,174.6z"/>
			<path class="st4" d="M71.8,178l-2-0.9l0.6-1.3l5.4,2.5l-0.6,1.3l-2-0.9l-2.6,5.5l-1.5-0.7L71.8,178z"/>
			<path class="st4" d="M76.4,178.5L78,179l-1,2.7l3.1,1.1l1-2.7l1.6,0.6l-2.6,7.1l-1.6-0.6l1.1-3.1l-3.1-1.1l-1.1,3.1l-1.6-0.6
				L76.4,178.5z"/>
			<path class="st4" d="M88.9,187.1c-0.1,0.4-0.3,0.8-0.5,1.2c-0.2,0.3-0.5,0.6-0.8,0.8c-0.3,0.2-0.7,0.3-1.1,0.4
				c-0.4,0.1-0.9,0-1.4-0.1c-0.5-0.1-0.9-0.3-1.3-0.6s-0.6-0.5-0.8-0.9c-0.2-0.3-0.3-0.7-0.3-1.1c0-0.4,0-0.8,0.1-1.2l1.1-4.5
				l1.6,0.4l-1.1,4.4c-0.1,0.2-0.1,0.4-0.1,0.7c0,0.2,0.1,0.4,0.2,0.6c0.1,0.2,0.2,0.3,0.4,0.5c0.2,0.1,0.4,0.2,0.6,0.3
				c0.2,0.1,0.4,0.1,0.6,0c0.2,0,0.4-0.1,0.6-0.2c0.2-0.1,0.3-0.3,0.4-0.4c0.1-0.2,0.2-0.4,0.3-0.6l1.1-4.4l1.6,0.4L88.9,187.1z"/>
			<path class="st4" d="M91.3,182.8l2.8,0.4c0.3,0,0.6,0.1,1,0.2c0.3,0.1,0.6,0.2,0.8,0.4c0.2,0.2,0.4,0.4,0.5,0.7
				c0.1,0.3,0.2,0.6,0.1,1c-0.1,0.4-0.2,0.8-0.5,1c-0.3,0.2-0.6,0.4-1,0.5l0,0c0.2,0.1,0.5,0.2,0.6,0.3c0.2,0.1,0.3,0.3,0.5,0.5
				c0.1,0.2,0.2,0.4,0.2,0.6c0,0.2,0,0.5,0,0.7c-0.1,0.4-0.2,0.7-0.4,0.9c-0.2,0.2-0.5,0.4-0.8,0.5c-0.3,0.1-0.6,0.2-1,0.2
				c-0.3,0-0.7,0-1,0l-3.1-0.5L91.3,182.8z M92,189.2l1.5,0.2c0.1,0,0.3,0,0.4,0c0.1,0,0.3,0,0.4-0.1c0.1-0.1,0.2-0.1,0.3-0.2
				c0.1-0.1,0.1-0.2,0.2-0.4c0-0.2,0-0.3-0.1-0.4c-0.1-0.1-0.2-0.2-0.3-0.3c-0.1-0.1-0.3-0.1-0.4-0.2c-0.2,0-0.3-0.1-0.4-0.1
				l-1.2-0.2L92,189.2z M92.5,186.1l1.2,0.2c0.1,0,0.3,0,0.4,0c0.1,0,0.2,0,0.4-0.1s0.2-0.1,0.3-0.2c0.1-0.1,0.1-0.2,0.1-0.4
				c0-0.2,0-0.3,0-0.4c-0.1-0.1-0.1-0.2-0.2-0.3c-0.1-0.1-0.2-0.1-0.3-0.2c-0.1,0-0.3-0.1-0.4-0.1l-1.1-0.2L92.5,186.1z"/>
			<path class="st4" d="M97.2,190.4c0-0.1,0-0.3,0.1-0.4c0.1-0.1,0.1-0.2,0.2-0.3c0.1-0.1,0.2-0.1,0.3-0.2c0.1,0,0.3-0.1,0.4,0
				c0.1,0,0.3,0,0.4,0.1c0.1,0.1,0.2,0.1,0.3,0.2c0.1,0.1,0.1,0.2,0.2,0.3c0,0.1,0.1,0.3,0,0.4c0,0.1,0,0.3-0.1,0.4
				c-0.1,0.1-0.1,0.2-0.2,0.3c-0.1,0.1-0.2,0.1-0.3,0.2c-0.1,0-0.3,0.1-0.4,0c-0.1,0-0.3,0-0.4-0.1c-0.1-0.1-0.2-0.1-0.3-0.2
				c-0.1-0.1-0.1-0.2-0.2-0.3C97.2,190.6,97.2,190.5,97.2,190.4z"/>
			<path class="st4" d="M105.8,186.2c-0.2-0.2-0.4-0.4-0.6-0.5c-0.2-0.1-0.5-0.2-0.8-0.2c-0.3,0-0.6,0-0.9,0.2
				c-0.3,0.1-0.5,0.3-0.7,0.5c-0.2,0.2-0.4,0.5-0.5,0.8c-0.1,0.3-0.2,0.6-0.2,1c0,0.4,0,0.7,0.1,1c0.1,0.3,0.2,0.6,0.4,0.8
				s0.4,0.4,0.7,0.5c0.3,0.1,0.5,0.2,0.8,0.2c0.3,0,0.6-0.1,0.9-0.2c0.3-0.1,0.5-0.3,0.7-0.6l1.4,1.1c-0.3,0.4-0.7,0.8-1.2,1
				c-0.5,0.2-1,0.3-1.5,0.3c-0.6,0-1.1-0.1-1.6-0.3s-0.9-0.5-1.3-0.8c-0.4-0.4-0.6-0.8-0.8-1.3c-0.2-0.5-0.3-1-0.3-1.7
				c0-0.6,0.1-1.1,0.3-1.6c0.2-0.5,0.5-0.9,0.9-1.2c0.4-0.3,0.8-0.6,1.3-0.8c0.5-0.2,1.1-0.3,1.6-0.2c0.2,0,0.4,0,0.7,0.1
				c0.2,0,0.5,0.1,0.7,0.2c0.2,0.1,0.4,0.2,0.6,0.4c0.2,0.1,0.4,0.3,0.5,0.5L105.8,186.2z"/>
			<path class="st4" d="M107.8,188c0-0.6,0-1.2,0.2-1.7s0.4-0.9,0.8-1.3c0.3-0.4,0.7-0.7,1.2-0.9s1-0.4,1.6-0.4s1.1,0,1.7,0.2
				c0.5,0.1,1,0.4,1.4,0.7c0.4,0.3,0.7,0.7,0.9,1.2c0.2,0.5,0.4,1,0.4,1.6c0,0.6,0,1.2-0.2,1.7c-0.2,0.5-0.4,0.9-0.8,1.3
				c-0.3,0.4-0.8,0.7-1.2,0.9s-1,0.4-1.6,0.4c-0.6,0-1.1,0-1.7-0.2c-0.5-0.1-1-0.4-1.4-0.7c-0.4-0.3-0.7-0.7-0.9-1.2
				C108,189.2,107.9,188.6,107.8,188z M109.6,187.9c0,0.4,0.1,0.7,0.2,1c0.1,0.3,0.3,0.5,0.5,0.7c0.2,0.2,0.5,0.4,0.8,0.4
				c0.3,0.1,0.6,0.1,1,0.1c0.4,0,0.7-0.1,1-0.3c0.3-0.1,0.5-0.3,0.7-0.6c0.2-0.2,0.3-0.5,0.4-0.8c0.1-0.3,0.1-0.6,0.1-1
				c0-0.3-0.1-0.7-0.2-1c-0.1-0.3-0.3-0.5-0.5-0.7c-0.2-0.2-0.5-0.4-0.8-0.5c-0.3-0.1-0.6-0.1-1-0.1c-0.4,0-0.7,0.1-1,0.3
				s-0.5,0.3-0.7,0.6s-0.3,0.5-0.4,0.8C109.6,187.2,109.5,187.6,109.6,187.9z"/>
			<path class="st4" d="M116.5,183.5l2.5-0.5l2.6,4.5l0,0l0.8-5.2l2.5-0.5l1.4,7.4l-1.6,0.3l-1.1-5.7l0,0l-0.9,6.1l-1.3,0.2l-3-5.3
				l0,0l1.1,5.7l-1.6,0.3L116.5,183.5z"/>
			<path class="st4" d="M128.3,180.3l1.3,0l-0.8,8.9l-1.3,0L128.3,180.3z"/>
			<path class="st4" d="M130.1,180.4l2.4-0.9l3.4,4l0,0l-0.1-5.2l2.3-0.9l2.7,7.1l-1.6,0.6l-2.1-5.4l0,0l0.2,6.1l-1.2,0.5l-3.9-4.7
				l0,0l2.1,5.4l-1.6,0.6L130.1,180.4z"/>
			<path class="st4" d="M139.2,176.7l1.5-0.7l3.3,6.8l-1.5,0.7L139.2,176.7z"/>
			<path class="st4" d="M146.1,175.2c-0.2-0.1-0.4-0.1-0.7-0.1c-0.2,0-0.5,0.1-0.6,0.2c-0.1,0.1-0.2,0.1-0.3,0.2
				c-0.1,0.1-0.2,0.2-0.3,0.3s-0.1,0.2-0.1,0.3s0,0.2,0.1,0.4c0.1,0.2,0.3,0.3,0.5,0.3c0.2,0,0.4,0,0.7,0c0.3-0.1,0.6-0.1,0.9-0.2
				c0.3-0.1,0.6-0.1,0.9-0.1c0.3,0,0.6,0.1,0.9,0.2c0.3,0.1,0.5,0.4,0.7,0.8c0.2,0.4,0.3,0.7,0.3,1.1c0,0.3,0,0.7-0.2,1
				c-0.1,0.3-0.3,0.6-0.6,0.9c-0.3,0.3-0.6,0.5-0.9,0.7c-0.4,0.2-0.9,0.4-1.3,0.5c-0.4,0.1-0.9,0.1-1.4-0.1l0.4-1.7
				c0.3,0.1,0.5,0.2,0.8,0.1c0.3,0,0.6-0.1,0.8-0.2c0.1-0.1,0.2-0.1,0.3-0.2c0.1-0.1,0.2-0.2,0.3-0.3c0.1-0.1,0.1-0.2,0.1-0.3
				c0-0.1,0-0.2-0.1-0.4c-0.1-0.2-0.3-0.3-0.5-0.3s-0.5,0-0.7,0c-0.3,0-0.6,0.1-0.9,0.2c-0.3,0.1-0.6,0.1-0.9,0.1
				c-0.3,0-0.6-0.1-0.9-0.2c-0.3-0.1-0.5-0.4-0.7-0.8c-0.2-0.4-0.3-0.7-0.3-1.1c0-0.3,0.1-0.7,0.2-1s0.3-0.6,0.6-0.9
				c0.3-0.3,0.5-0.5,0.9-0.7c0.4-0.2,0.8-0.4,1.2-0.4c0.4-0.1,0.8-0.1,1.2,0L146.1,175.2z"/>
			<path class="st4" d="M147.1,172.5l2.3-1.6c0.3-0.2,0.7-0.4,1-0.5c0.3-0.1,0.7-0.2,1-0.2c0.3,0,0.6,0.1,0.9,0.2
				c0.3,0.2,0.6,0.4,0.8,0.8c0.2,0.4,0.4,0.7,0.4,1c0,0.3,0,0.6-0.1,0.9c-0.1,0.3-0.3,0.6-0.5,0.8s-0.5,0.5-0.9,0.7l-1,0.7l1.6,2.5
				l-1.4,0.9L147.1,172.5z M150.3,174.3l0.9-0.6c0.1-0.1,0.2-0.2,0.3-0.3c0.1-0.1,0.2-0.2,0.2-0.3c0.1-0.1,0.1-0.2,0.1-0.4
				c0-0.1-0.1-0.3-0.2-0.4c-0.1-0.2-0.2-0.3-0.4-0.3c-0.1,0-0.3-0.1-0.4,0c-0.2,0-0.3,0.1-0.5,0.2c-0.2,0.1-0.3,0.2-0.4,0.3
				l-0.7,0.5L150.3,174.3z"/>
		</g>
		<g class="st2">
			<g>
				<g>
					<polygon class="st4" points="27.1,93.5 38.6,93.5 45.6,105.1 52.7,93.5 64.2,93.5 64.2,126.4 53.2,126.4 53.2,110.1 
						45.6,121.8 45.4,121.8 37.9,110.1 37.9,126.4 27.1,126.4 					"/>
				</g>
			</g>
			<g>
				<g>
					<rect x="69.6" y="93.5" class="st4" width="11" height="32.9"/>
				</g>
			</g>
			<g>
				<g>
					<g>
						<g>
							<path class="st4" d="M83.4,120.9l5.9-7c3.6,2.7,7.7,3.9,11.5,3.9c2,0,2.8-0.5,2.8-1.4v-0.1c0-0.9-1-1.5-4.6-2.2
								c-7.4-1.5-13.9-3.6-13.9-10.6v-0.1c0-6.3,4.9-11.1,14-11.1c6.3,0,11.1,1.5,14.9,4.5l-5.4,7.4c-3.1-2.3-6.8-3.2-9.9-3.2
								c-1.6,0-2.4,0.6-2.4,1.4v0.1c0,0.9,0.9,1.5,4.4,2.1c8.4,1.6,14.1,4,14.1,10.6v0.1c0,6.9-5.7,11.1-14.5,11.1
								C93.6,126.4,87.6,124.5,83.4,120.9"/>
						</g>
					</g>
					<g>
						<g>
							<path class="st4" d="M132.2,109c2.8,0,4.7-1.3,4.7-3.6v-0.1c0-2.4-1.7-3.6-4.7-3.6h-3v7.3H132.2z M118.2,92.9H133
								c8.7,0,14.7,3.9,14.7,11.7v0.1c0,7.9-6.1,12.2-15,12.2h-3.6v8.9h-11V92.9z"/>
						</g>
					</g>
				</g>
			</g>
			<g>
				<g>
					<path class="st4" d="M34.8,132.7H31V130h10.7v2.6h-3.8v11.2h-3.1V132.7z"/>
				</g>
				<g>
					<path class="st4" d="M44.7,129.3h3.1v5.7h0c0.3-0.4,0.7-0.8,1.2-1c0.5-0.2,1-0.4,1.6-0.4c2,0,3.5,1.4,3.5,4.4v5.9h-3.1v-5.5
						c0-1.3-0.5-2.2-1.6-2.2c-0.8,0-1.3,0.5-1.6,1.1c-0.1,0.2-0.1,0.5-0.1,0.7v6h-3.1V129.3z"/>
				</g>
				<g>
					<path class="st4" d="M58.2,137.1c0-1.5,0-2.4-0.1-3.3h2.7l0.1,1.9H61c0.5-1.5,1.7-2.1,2.7-2.1c0.3,0,0.4,0,0.7,0v2.9
						c-0.2,0-0.5-0.1-0.8-0.1c-1.2,0-1.9,0.6-2.1,1.6c0,0.2-0.1,0.5-0.1,0.7v5.1h-3.1V137.1z"/>
				</g>
				<g>
					<path class="st4" d="M69.8,139.9c0.1,1.3,1.4,1.9,2.8,1.9c1.1,0,1.9-0.1,2.8-0.4l0.4,2.1c-1,0.4-2.3,0.6-3.6,0.6
						c-3.4,0-5.4-2-5.4-5.1c0-2.6,1.6-5.4,5.1-5.4c3.3,0,4.5,2.5,4.5,5c0,0.5-0.1,1-0.1,1.2H69.8z M73.5,137.7c0-0.8-0.3-2-1.8-2
						c-1.3,0-1.9,1.2-1.9,2H73.5z"/>
				</g>
				<g>
					<path class="st4" d="M85.4,143.9l-0.2-1h-0.1c-0.7,0.8-1.7,1.2-2.9,1.2c-2,0-3.3-1.5-3.3-3.1c0-2.6,2.3-3.9,5.9-3.8V137
						c0-0.5-0.3-1.3-1.8-1.3c-1,0-2.1,0.4-2.8,0.8l-0.6-2c0.7-0.4,2.1-0.9,3.9-0.9c3.4,0,4.4,2,4.4,4.3v3.5c0,1,0,1.9,0.1,2.4H85.4z
						 M85,139.1c-1.6,0-2.9,0.4-2.9,1.6c0,0.8,0.5,1.2,1.2,1.2c0.8,0,1.4-0.5,1.6-1.2c0-0.2,0.1-0.3,0.1-0.5V139.1z"/>
				</g>
				<g>
					<path class="st4" d="M95.5,130.9v2.9h2.2v2.3h-2.2v3.6c0,1.2,0.3,1.8,1.2,1.8c0.4,0,0.7,0,0.9-0.1l0,2.4
						c-0.4,0.2-1.2,0.3-2,0.3c-1,0-1.9-0.3-2.3-0.9c-0.6-0.6-0.9-1.6-0.9-3v-4.1h-1.3v-2.3h1.3v-2.2L95.5,130.9z"/>
				</g>
				<g>
					<path class="st4" d="M106.7,140.7c0.8,0.4,2.1,0.9,3.5,0.9c1.4,0,2.2-0.6,2.2-1.5c0-0.9-0.7-1.4-2.3-2
						c-2.3-0.8-3.8-2.1-3.8-4.1c0-2.4,2-4.2,5.2-4.2c1.6,0,2.7,0.3,3.5,0.7l-0.7,2.5c-0.6-0.3-1.5-0.7-2.9-0.7c-1.4,0-2,0.6-2,1.3
						c0,0.9,0.8,1.3,2.6,2c2.4,0.9,3.6,2.2,3.6,4.1c0,2.3-1.8,4.3-5.6,4.3c-1.6,0-3.1-0.4-3.9-0.8L106.7,140.7z"/>
				</g>
				<g>
					<path class="st4" d="M119,129.3h3.1v5.7h0c0.3-0.4,0.7-0.8,1.2-1c0.5-0.2,1-0.4,1.6-0.4c2,0,3.5,1.4,3.5,4.4v5.9h-3.1v-5.5
						c0-1.3-0.5-2.2-1.6-2.2c-0.8,0-1.3,0.5-1.6,1.1c-0.1,0.2-0.1,0.5-0.1,0.7v6H119V129.3z"/>
				</g>
				<g>
					<path class="st4" d="M138.2,143.9l-0.2-1H138c-0.7,0.8-1.7,1.2-2.9,1.2c-2,0-3.3-1.5-3.3-3.1c0-2.6,2.3-3.9,5.9-3.8V137
						c0-0.5-0.3-1.3-1.8-1.3c-1,0-2.1,0.4-2.8,0.8l-0.6-2c0.7-0.4,2.1-0.9,3.9-0.9c3.4,0,4.4,2,4.4,4.3v3.5c0,1,0,1.9,0.1,2.4H138.2
						z M137.9,139.1c-1.6,0-2.9,0.4-2.9,1.6c0,0.8,0.5,1.2,1.2,1.2c0.8,0,1.4-0.5,1.6-1.2c0-0.2,0.1-0.3,0.1-0.5V139.1z"/>
				</g>
				<g>
					<path class="st4" d="M144.8,137.1c0-1.5,0-2.4-0.1-3.3h2.7l0.1,1.9h0.1c0.5-1.5,1.7-2.1,2.7-2.1c0.3,0,0.4,0,0.7,0v2.9
						c-0.2,0-0.5-0.1-0.8-0.1c-1.2,0-1.9,0.6-2.1,1.6c0,0.2-0.1,0.5-0.1,0.7v5.1h-3.1V137.1z"/>
				</g>
				<g>
					<path class="st4" d="M157.3,131c0,0.9-0.7,1.6-1.7,1.6c-1,0-1.6-0.7-1.6-1.6c0-0.9,0.6-1.6,1.6-1.6
						C156.6,129.4,157.3,130.1,157.3,131z M154,143.9v-10.1h3.1v10.1H154z"/>
				</g>
				<g>
					<path class="st4" d="M161.1,137c0-1.3,0-2.3-0.1-3.2h2.7l0.1,1.4h0.1c0.4-0.6,1.4-1.6,3.1-1.6c2.1,0,3.6,1.4,3.6,4.3v6h-3.1
						v-5.6c0-1.3-0.5-2.2-1.6-2.2c-0.9,0-1.4,0.6-1.6,1.2c-0.1,0.2-0.1,0.5-0.1,0.8v5.8h-3.1V137z"/>
				</g>
				<g>
					<path class="st4" d="M184.2,133.8c0,0.6-0.1,1.5-0.1,3v5.6c0,1.9-0.4,3.5-1.5,4.5c-1.1,0.9-2.6,1.2-4.1,1.2
						c-1.3,0-2.7-0.3-3.6-0.8l0.6-2.4c0.6,0.4,1.7,0.8,2.9,0.8c1.5,0,2.6-0.8,2.6-2.7v-0.7h0c-0.6,0.8-1.6,1.3-2.7,1.3
						c-2.5,0-4.3-2-4.3-4.9c0-3.2,2.1-5.3,4.6-5.3c1.4,0,2.2,0.6,2.8,1.4h0l0.1-1.2H184.2z M181,137.9c0-0.2,0-0.4-0.1-0.6
						c-0.2-0.8-0.8-1.4-1.7-1.4c-1.1,0-2.1,1-2.1,2.9c0,1.5,0.7,2.7,2.1,2.7c0.8,0,1.4-0.5,1.6-1.3c0.1-0.2,0.1-0.6,0.1-0.8V137.9z"
						/>
				</g>
			</g>
			<g>
				<g>
					<g>
						<g>
							<path class="st3" d="M160.5,48.6h-2.1v23.3c0,3.6-2.1,6.9-6.4,6.9h-41.6v1.1c0,3.2,3.7,6.5,7.4,6.5h31.8l12.2,7.1l-1.8-7.1
								h0.5c3.8,0,5.4-3.2,5.4-6.5V54.1C165.9,50.9,164.2,48.6,160.5,48.6"/>
						</g>
					</g>
					<g>
						<g>
							<path class="st3" d="M137.4,57c-2.4,0-4.4-2-4.4-4.4c0-2.4,2-4.4,4.4-4.4c2.4,0,4.4,2,4.4,4.4C141.8,55.1,139.8,57,137.4,57
								 M121.2,57c-2.4,0-4.4-2-4.4-4.4c0-2.4,2-4.4,4.4-4.4c2.4,0,4.4,2,4.4,4.4C125.5,55.1,123.6,57,121.2,57 M104.9,57
								c-2.4,0-4.4-2-4.4-4.4c0-2.4,2-4.4,4.4-4.4c2.4,0,4.4,2,4.4,4.4C109.2,55.1,107.3,57,104.9,57 M145.8,32.3H97.5
								c-4.3,0-9.1,3.8-9.1,7.4V69c0,3.3,4.1,5.8,8.1,6.1L93.9,85l16.6-9.7h35.3c4.2,0,8.2-2.6,8.2-6.2V39.8
								C153.9,36.1,150,32.3,145.8,32.3"/>
						</g>
					</g>
				</g>
			</g>
		</g>
		<g class="st2">
			<path class="st3" d="M52.8,173.5l-3.1-2.2c-0.6-0.4-0.7-1.2-0.3-1.8l2.2-3.1c0.4-0.6,1.2-0.7,1.8-0.3l3.1,2.2
				c0.6,0.4,0.7,1.2,0.3,1.8l-2.2,3.1C54.2,173.8,53.4,173.9,52.8,173.5z"/>
		</g>
		<g class="st2">
			<path class="st3" d="M160.5,165.3l2.5,3c0.5,0.5,0.4,1.4-0.2,1.8l-3,2.5c-0.5,0.5-1.4,0.4-1.8-0.2l-2.5-3
				c-0.5-0.5-0.4-1.4,0.2-1.8l3-2.5C159.3,164.7,160.1,164.7,160.5,165.3z"/>
		</g>
	</g>
</g>
<g id="Layer_2">
</g>
</svg>
