<?xml version="1.0" encoding="utf-8"?>
<!-- Generator: Adobe Illustrator 19.1.0, SVG Export Plug-In . SVG Version: 6.00 Build 0)  -->
<svg version="1.1" id="Layer_1" xmlns="http://www.w3.org/2000/svg" xmlns:xlink="http://www.w3.org/1999/xlink" x="0px" y="0px"
	 viewBox="0 0 212.6 212.6" style="enable-background:new 0 0 212.6 212.6;" xml:space="preserve">
<style type="text/css">
	.st0{fill:#FFFFFF;}
	
		.st1{display:none;fill:none;stroke:#456D81;stroke-width:0.8301;stroke-linecap:square;stroke-miterlimit:10;stroke-dasharray:0.1876,1.8762;}
	.st2{clip-path:url(#SVGID_2_);}
	.st3{fill:#456D81;}
	.st4{fill:#DF2E39;}
</style>
<path class="st0" d="M106.3,212.7C47.6,212.7,0,165.1,0,106.4S47.6,0.1,106.3,0.1c58.7,0,106.3,47.6,106.3,106.3
	S165,212.7,106.3,212.7z"/>
<circle class="st1" cx="106.3" cy="106.8" r="87"/>
<g>
	<defs>
		<path id="SVGID_1_" d="M106.3,212.7C47.6,212.7,0,165.1,0,106.4S47.6,0.1,106.3,0.1c58.7,0,106.3,47.6,106.3,106.3
			S165,212.7,106.3,212.7z"/>
	</defs>
	<clipPath id="SVGID_2_">
		<use xlink:href="#SVGID_1_"  style="overflow:visible;"/>
	</clipPath>
	<g class="st2">
		<path class="st3" d="M106.3,217.3c-61.2,0-111-49.8-111-111s49.8-111,111-111s111,49.8,111,111S167.5,217.3,106.3,217.3z M106.3,5
			C50.4,5,5,50.4,5,106.3c0,55.9,45.5,101.3,101.3,101.3c55.9,0,101.3-45.5,101.3-101.3C207.7,50.4,162.2,5,106.3,5z"/>
	</g>
	<g class="st2">
		<path class="st3" d="M13.8,101.1l-0.9-0.1l0.1-1.1l0.9,0.1L13.8,101.1z M198.7,99.4l-0.1-1.1l0.9-0.1l0.1,1.1L198.7,99.4z
			 M14,98.9l-0.9-0.1l0.1-1.1l0.9,0.1L14,98.9z M198.5,97.3l-0.1-1.1l0.9-0.1l0.1,1.1L198.5,97.3z M14.2,96.6l-0.9,0l0.1-1.1
			l0.9,0.1L14.2,96.6z M198.2,95.1l-0.1-1.1l0.9-0.1l0.1,1.1L198.2,95.1z M14.5,94.5l-0.9-0.1l0.1-1.1l0.9,0.1L14.5,94.5z
			 M197.9,92.9l-0.2-1.1l0.9-0.1l0.2,1.1L197.9,92.9z M14.8,92.3l-0.9-0.1l0.2-1.1l0.9,0.1L14.8,92.3z M197.6,90.7l-0.2-1.1l0.9-0.2
			l0.2,1.1L197.6,90.7z M15.2,90.2L14.3,90l0.2-1.1l0.9,0.2L15.2,90.2z M197.2,88.6l-0.2-1.1l0.9-0.2l0.2,1.1L197.2,88.6z M15.6,88
			l-0.9-0.2l0.2-1.1l0.9,0.2L15.6,88z M196.7,86.4l-0.2-1l0.9-0.2l0.2,1.1L196.7,86.4z M16,85.9l-0.9-0.2l0.2-1.1l0.9,0.2L16,85.9z
			 M196.2,84.3l-0.3-1.1l0.9-0.2l0.3,1.1L196.2,84.3z M16.6,83.7l-0.9-0.2l0.3-1.1l0.9,0.2L16.6,83.7z M195.6,82.2l-0.3-1l0.9-0.2
			l0.3,1.1L195.6,82.2z M17.1,81.6l-0.9-0.2l0.3-1l0.9,0.2L17.1,81.6z M195,80l-0.3-1l0.8-0.3l0.3,1L195,80z M17.8,79.5l-0.8-0.3
			l0.3-1l0.8,0.3L17.8,79.5z M194.4,77.9l-0.3-1l0.8-0.3l0.3,1L194.4,77.9z M18.4,77.4l-0.8-0.3l0.4-1l0.8,0.3L18.4,77.4z
			 M193.7,75.9l-0.4-1l0.8-0.3l0.4,1L193.7,75.9z M19.2,75.2L18.3,75l0.3-0.9l0.9,0.2L19.2,75.2z M192.9,73.8l-0.4-1l0.8-0.3l0.4,1
			L192.9,73.8z M20,73.2l-0.9-0.2l0.4-0.9l0.9,0.2L20,73.2z M192.1,71.8l-0.4-1l0.8-0.3l0.4,1L192.1,71.8z M20.8,71.2l-0.8-0.3
			l0.4-1l0.8,0.3L20.8,71.2z M191.3,69.8l-0.4-1l0.8-0.4l0.4,1L191.3,69.8z M21.6,69.2l-0.8-0.4l0.4-1l0.8,0.4L21.6,69.2z
			 M190.4,67.8l-0.5-1l0.8-0.4l0.5,1L190.4,67.8z M22.6,67.1l-0.8-0.3l0.4-0.9l0.8,0.3L22.6,67.1z M189.4,65.8l-0.5-1l0.8-0.4l0.5,1
			L189.4,65.8z M23.6,65.1l-0.8-0.3l0.5-1l0.8,0.4L23.6,65.1z M188.4,63.8l-0.5-0.9l0.7-0.5l0.5,0.9L188.4,63.8z M24.5,63.3
			l-0.8-0.4l0.5-1l0.8,0.4L24.5,63.3z M187.4,61.9l-0.5-0.9l0.8-0.4l0.5,1L187.4,61.9z M25.6,61.3l-0.8-0.4l0.5-0.9l0.8,0.4
			L25.6,61.3z M186.3,60l-0.6-0.9l0.8-0.5l0.6,0.9L186.3,60z M26.7,59.3L25.9,59l0.5-0.8l0.8,0.4L26.7,59.3z M185.2,58.1l-0.6-0.9
			l0.8-0.5l0.6,0.9L185.2,58.1z M27.8,57.5l-0.7-0.5l0.6-0.9l0.7,0.5L27.8,57.5z M184,56.3l-0.6-0.9l0.7-0.5l0.6,0.9L184,56.3z
			 M29.1,55.6l-0.8-0.4l0.5-0.8l0.8,0.4L29.1,55.6z M182.7,54.4l-0.6-0.9l0.7-0.5l0.6,0.9L182.7,54.4z M30.3,53.9l-0.7-0.5l0.6-0.9
			l0.7,0.5L30.3,53.9z M181.5,52.7l-0.6-0.9l0.7-0.5l0.6,0.9L181.5,52.7z M31.6,52.1l-0.7-0.5l0.6-0.9l0.7,0.5L31.6,52.1z
			 M180.2,50.9l-0.7-0.9l0.7-0.5l0.7,0.9L180.2,50.9z M32.9,50.3l-0.7-0.5l0.7-0.9l0.7,0.5L32.9,50.3z M178.8,49.2l-0.6-0.8l0.6-0.6
			l0.6,0.8L178.8,49.2z M34.2,48.6L33.6,48l0.7-0.8l0.7,0.6L34.2,48.6z M177.5,47.5l-0.7-0.8l0.6-0.6l0.7,0.8L177.5,47.5z
			 M35.6,46.9L35,46.3l0.7-0.8l0.7,0.6L35.6,46.9z M176,45.8l-0.7-0.8l0.7-0.6l0.7,0.8L176,45.8z M37.1,45.3l-0.7-0.6l0.7-0.8
			l0.7,0.6L37.1,45.3z M174.5,44.2l-0.7-0.8l0.6-0.6l0.7,0.8L174.5,44.2z M38.6,43.6L37.9,43l0.7-0.8l0.6,0.6L38.6,43.6z M173,42.6
			l-0.8-0.8l0.6-0.6l0.8,0.8L173,42.6z M40.1,42l-0.6-0.6l0.8-0.8l0.6,0.6L40.1,42z M171.5,41l-0.8-0.8l0.6-0.6l0.8,0.8L171.5,41z
			 M41.6,40.5L41,39.8l0.8-0.8l0.6,0.6L41.6,40.5z M169.9,39.5l-0.7-0.7l0.5-0.7l0.7,0.7L169.9,39.5z M43.2,39l-0.6-0.7l0.8-0.7
			l0.6,0.7L43.2,39z M168.3,38l-0.8-0.7l0.6-0.7l0.8,0.7L168.3,38z M44.9,37.5l-0.6-0.7l0.8-0.7l0.6,0.7L44.9,37.5z M166.7,36.5
			l-0.8-0.7l0.6-0.7l0.8,0.7L166.7,36.5z M46.5,36.1l-0.6-0.7l0.8-0.7l0.6,0.7L46.5,36.1z M165,35.1l-0.9-0.7l0.6-0.7l0.8,0.7
			L165,35.1z M48.2,34.7L47.7,34l0.8-0.7l0.6,0.7L48.2,34.7z M163.3,33.7l-0.9-0.7l0.5-0.7l0.9,0.7L163.3,33.7z M49.9,33.3l-0.5-0.7
			l0.9-0.7l0.5,0.7L49.9,33.3z M161.5,32.4l-0.9-0.6l0.5-0.7l0.9,0.6L161.5,32.4z M51.7,32l-0.5-0.7l0.9-0.6l0.5,0.7L51.7,32z
			 M159.7,31.1l-0.9-0.6l0.5-0.8l0.9,0.6L159.7,31.1z M53.5,30.7L53,30l0.9-0.6l0.5,0.7L53.5,30.7z M157.9,29.9l-0.9-0.6l0.5-0.7
			l0.9,0.6L157.9,29.9z M55.4,29.4l-0.6-0.7l0.8-0.5l0.6,0.7L55.4,29.4z M156.1,28.7l-0.9-0.6l0.5-0.8l0.9,0.6L156.1,28.7z
			 M57.1,28.3l-0.5-0.8l0.9-0.6l0.5,0.8L57.1,28.3z M154.2,27.5l-0.9-0.6l0.5-0.8l0.9,0.6L154.2,27.5z M59,27.1l-0.4-0.8l0.9-0.6
			l0.5,0.8L59,27.1z M152.3,26.4l-0.9-0.5l0.4-0.8l1,0.5L152.3,26.4z M60.9,26.1l-0.4-0.8l1-0.5l0.4,0.8L60.9,26.1z M150.4,25.3
			l-1-0.5l0.4-0.8l1,0.5L150.4,25.3z M62.9,25l-0.5-0.7l0.9-0.5l0.5,0.7L62.9,25z M148.4,24.3l-1-0.5l0.4-0.8l1,0.5L148.4,24.3z
			 M64.8,24l-0.4-0.8l1-0.5l0.4,0.8L64.8,24z M146.5,23.3l-1-0.5l0.4-0.8l1,0.5L146.5,23.3z M66.7,23l-0.4-0.8l1-0.5l0.4,0.8
			L66.7,23z M144.5,22.4l-1-0.4l0.4-0.8l1,0.4L144.5,22.4z M68.7,22.1l-0.4-0.8l1-0.4l0.4,0.8L68.7,22.1z M142.5,21.5l-1-0.4
			l0.3-0.8l1,0.4L142.5,21.5z M70.7,21.3l-0.3-0.8l1-0.4l0.3,0.8L70.7,21.3z M140.4,20.7l-1-0.4l0.3-0.8l1,0.4L140.4,20.7z
			 M72.8,20.4l-0.3-0.8l1-0.4l0.3,0.8L72.8,20.4z M138.4,19.9l-1-0.4l0.3-0.8l1,0.4L138.4,19.9z M74.8,19.7l-0.3-0.8l1-0.4l0.3,0.8
			L74.8,19.7z M136.3,19.1l-1-0.3l0.3-0.8l1,0.3L136.3,19.1z M76.9,18.9l-0.3-0.8l1-0.3l0.3,0.8L76.9,18.9z M134.2,18.4l-1-0.3
			l0.3-0.9l1,0.3L134.2,18.4z M79,18.3l-0.3-0.8l1-0.3L80,18L79,18.3z M132.1,17.8l-1-0.3l0.2-0.9l1,0.3L132.1,17.8z M81.2,17.6
			l-0.3-0.8l1-0.3l0.3,0.8L81.2,17.6z M130,17.2l-1.1-0.3l0.2-0.9l1.1,0.3L130,17.2z M83.2,17.1L83,16.2l1.1-0.3l0.2,0.9L83.2,17.1z
			 M127.8,16.7l-1.1-0.2l0.2-0.9l1.1,0.2L127.8,16.7z M85.4,16.6l-0.2-0.9l1.1-0.2l0.2,0.9L85.4,16.6z M125.7,16.2l-1.1-0.2l0.2-0.9
			l1.1,0.2L125.7,16.2z M87.5,16.1l-0.2-0.9l1.1-0.2l0.2,0.9L87.5,16.1z M123.5,15.8l-1-0.2l0.1-0.9l1.1,0.2L123.5,15.8z M89.7,15.7
			l-0.2-0.9l1.1-0.2l0.1,0.9L89.7,15.7z M121.4,15.4l-1.1-0.2l0.1-0.9l1.1,0.2L121.4,15.4z M91.9,15.3l-0.2-0.9l1-0.2l0.2,0.9
			L91.9,15.3z M119.2,15.1l-1.1-0.1l0.1-0.9l1.1,0.1L119.2,15.1z M94,15l-0.1-0.9L95,14l0.1,0.9L94,15z M117,14.8l-1.1-0.1l0.1-0.9
			l1.1,0.1L117,14.8z M96.2,14.7l-0.1-0.9l1.1-0.1l0.1,0.9L96.2,14.7z M114.8,14.6l-1-0.1l0-0.9l1.1,0.1L114.8,14.6z M98.4,14.5
			l-0.1-0.9l1.1-0.1l0.1,0.9L98.4,14.5z M112.6,14.4l-1.1-0.1l0.1-0.9l1.1,0.1L112.6,14.4z M100.6,14.4l-0.1-0.9l1.1-0.1l0,0.9
			L100.6,14.4z M110.4,14.3l-1.1,0l0-0.9l1.1,0L110.4,14.3z M103,14.2l-0.2-0.9l1,0l0.1,0.9L103,14.2z M108.2,14.2l-1.1,0l0-0.9
			l1.1,0L108.2,14.2z M105,14.2l0-0.9l1.1,0l0,0.9L105,14.2z"/>
	</g>
	<g class="st2">
		<path class="st3" d="M16.1,113.1c0.1-0.1,0.3-0.3,0.3-0.5s0.1-0.4,0.1-0.6c0-0.1,0-0.2-0.1-0.3c0-0.1-0.1-0.2-0.1-0.3
			c-0.1-0.1-0.1-0.2-0.2-0.2c-0.1-0.1-0.2-0.1-0.3-0.1c-0.2,0-0.4,0.1-0.5,0.3c-0.1,0.2-0.2,0.4-0.2,0.6c-0.1,0.2-0.1,0.5-0.2,0.8
			c-0.1,0.3-0.2,0.5-0.3,0.8c-0.1,0.2-0.3,0.4-0.5,0.6c-0.2,0.2-0.5,0.3-0.9,0.3c-0.4,0-0.7,0-1-0.2c-0.3-0.1-0.5-0.3-0.7-0.5
			c-0.2-0.2-0.4-0.5-0.5-0.8c-0.1-0.3-0.2-0.6-0.2-1c0-0.4,0-0.9,0.1-1.2c0.1-0.4,0.3-0.8,0.6-1.1l1.2,1c-0.2,0.2-0.3,0.4-0.4,0.6
			c-0.1,0.2-0.1,0.5-0.1,0.7c0,0.1,0,0.2,0.1,0.4c0,0.1,0.1,0.2,0.1,0.3c0.1,0.1,0.1,0.2,0.2,0.2c0.1,0.1,0.2,0.1,0.3,0.1
			c0.2,0,0.4-0.1,0.5-0.3c0.1-0.2,0.2-0.4,0.3-0.6c0.1-0.2,0.1-0.5,0.2-0.8c0.1-0.3,0.2-0.5,0.3-0.8c0.1-0.2,0.3-0.5,0.5-0.6
			s0.5-0.3,0.9-0.3c0.4,0,0.7,0,1,0.2c0.3,0.1,0.5,0.3,0.7,0.5c0.2,0.2,0.4,0.5,0.5,0.8c0.1,0.3,0.2,0.6,0.2,1c0,0.4,0,0.8-0.1,1.1
			c-0.1,0.4-0.3,0.7-0.5,1L16.1,113.1z"/>
		<path class="st3" d="M17.9,114.9l0.2,1.5l-2.5,0.3l0.4,2.9l2.5-0.3l0.2,1.5l-6.8,0.9l-0.2-1.5l2.9-0.4l-0.4-2.9l-2.9,0.4l-0.2-1.5
			L17.9,114.9z"/>
		<path class="st3" d="M19.3,124.1l0.3,1.2l-6,4.4l-0.4-1.7l1.3-0.9l-0.6-2.6l-1.5-0.2l-0.4-1.6L19.3,124.1z M17.5,125.1l-2.2-0.3
			l0.4,1.6L17.5,125.1z"/>
		<path class="st3" d="M20.3,128.7l0.7,2.5c0.1,0.3,0.2,0.7,0.2,1c0,0.3,0,0.6-0.1,0.9c-0.1,0.3-0.2,0.5-0.5,0.7
			c-0.2,0.2-0.5,0.4-0.9,0.5c-0.5,0.1-0.9,0.1-1.3,0c-0.4-0.1-0.7-0.4-0.9-0.9l-2.3,2.5l-0.5-1.7L17,132l-0.2-0.7l-2.6,0.7l-0.4-1.4
			L20.3,128.7z M18,130.9l0.2,0.9c0,0.1,0.1,0.3,0.1,0.4c0.1,0.1,0.1,0.3,0.2,0.4c0.1,0.1,0.2,0.2,0.3,0.2c0.1,0,0.3,0,0.4,0
			c0.2,0,0.3-0.1,0.4-0.2c0.1-0.1,0.1-0.2,0.2-0.3c0-0.1,0-0.2,0-0.4c0-0.1,0-0.3-0.1-0.4l-0.3-0.9L18,130.9z"/>
		<path class="st3" d="M22.1,134.5l0.5,1.4l-6.5,2.2l-0.5-1.4L22.1,134.5z"/>
		<path class="st3" d="M22.9,137.1l0.8,1.9l-3.3,4.5l0,0l4.4-1.8l0.6,1.4l-6.3,2.6l-0.7-1.8l3.4-4.6l0,0l-4.5,1.8l-0.6-1.4
			L22.9,137.1z"/>
		<path class="st3" d="M22.9,152.5c-0.4-0.3-0.8-0.6-1.1-1s-0.6-0.8-0.8-1.2c-0.2-0.5-0.4-0.9-0.4-1.4c-0.1-0.5,0-0.9,0.1-1.4
			s0.4-0.8,0.7-1.2c0.3-0.4,0.7-0.7,1.2-0.9s1-0.4,1.4-0.4c0.5,0,0.9,0,1.4,0.2c0.4,0.2,0.8,0.4,1.2,0.7c0.4,0.3,0.6,0.7,0.9,1.2
			c0.2,0.5,0.4,1,0.5,1.4c0.1,0.5,0.1,0.9-0.1,1.4l-1.5-0.4c0.1-0.3,0.1-0.6,0.1-0.8c0-0.3-0.1-0.6-0.3-0.9
			c-0.1-0.3-0.3-0.5-0.5-0.7c-0.2-0.2-0.5-0.3-0.7-0.4c-0.3-0.1-0.5-0.1-0.8-0.1c-0.3,0-0.6,0.1-0.8,0.3c-0.3,0.1-0.5,0.3-0.7,0.5
			c-0.2,0.2-0.3,0.4-0.4,0.7c-0.1,0.3-0.1,0.5-0.1,0.8c0,0.3,0.1,0.6,0.2,0.8c0.1,0.3,0.3,0.5,0.5,0.7c0.2,0.2,0.3,0.3,0.5,0.4
			l1-0.5l-0.6-1.1l1.2-0.6l1.2,2.4L22.9,152.5z"/>
		<path class="st3" d="M27.4,157.2l-1.2-2l1-0.6l1.2,2L27.4,157.2z"/>
		<path class="st3" d="M33.3,159.4l-1.1-1.6l1.1-0.8l3.2,4.3l-1.1,0.8l-1.1-1.6l-4.4,3.3l-0.9-1.2L33.3,159.4z"/>
		<path class="st3" d="M33.9,163.8c0.4-0.4,0.9-0.6,1.3-0.8c0.5-0.1,0.9-0.2,1.4-0.2c0.4,0,0.9,0.2,1.3,0.4c0.4,0.2,0.8,0.6,1.1,1
			c0.3,0.4,0.6,0.8,0.8,1.3c0.2,0.5,0.2,0.9,0.2,1.4c0,0.5-0.1,0.9-0.4,1.3c-0.2,0.4-0.5,0.8-1,1.2c-0.4,0.4-0.9,0.6-1.3,0.8
			c-0.5,0.1-0.9,0.2-1.4,0.2c-0.4,0-0.9-0.2-1.3-0.4c-0.4-0.2-0.8-0.6-1.1-1c-0.3-0.4-0.6-0.8-0.8-1.3c-0.2-0.4-0.2-0.9-0.2-1.3
			c0-0.4,0.1-0.9,0.4-1.3C33.1,164.5,33.4,164.1,33.9,163.8z M34.9,165c-0.2,0.2-0.4,0.4-0.6,0.7c-0.1,0.2-0.2,0.5-0.2,0.8
			c0,0.3,0,0.5,0.1,0.8c0.1,0.3,0.2,0.5,0.4,0.8c0.2,0.2,0.4,0.4,0.7,0.6c0.3,0.1,0.5,0.2,0.8,0.2c0.3,0,0.5,0,0.8-0.1
			c0.3-0.1,0.5-0.2,0.8-0.5c0.2-0.2,0.4-0.4,0.6-0.7c0.1-0.3,0.2-0.5,0.3-0.8c0-0.3,0-0.5-0.1-0.8c-0.1-0.3-0.2-0.5-0.4-0.8
			c-0.2-0.2-0.4-0.4-0.7-0.6c-0.3-0.1-0.5-0.2-0.8-0.2c-0.3,0-0.5,0-0.8,0.1C35.4,164.6,35.1,164.8,34.9,165z"/>
		<path class="st3" d="M43.7,169.7l1.6,1.5c0.4,0.4,0.7,0.8,1,1.2s0.5,0.9,0.5,1.3c0.1,0.4,0.1,0.9-0.1,1.4
			c-0.1,0.5-0.4,0.9-0.8,1.4c-0.4,0.4-0.8,0.7-1.2,0.9c-0.4,0.2-0.9,0.2-1.3,0.2c-0.5,0-0.9-0.1-1.3-0.4c-0.4-0.2-0.8-0.5-1.2-0.8
			l-1.8-1.7L43.7,169.7z M41.1,174.7l0.6,0.5c0.3,0.2,0.5,0.4,0.8,0.6c0.3,0.2,0.5,0.2,0.8,0.3c0.3,0,0.5,0,0.8-0.1
			c0.3-0.1,0.5-0.3,0.8-0.6c0.2-0.2,0.4-0.5,0.5-0.8c0.1-0.3,0.1-0.5,0-0.8c0-0.3-0.1-0.5-0.3-0.8c-0.2-0.3-0.3-0.5-0.6-0.7
			l-0.6-0.6L41.1,174.7z"/>
		<path class="st3" d="M49,174.5l3.6,2.9l-0.9,1.1l-2.4-2l-0.8,1l2.3,1.8l-0.9,1.1l-2.3-1.9l-0.9,1.1l2.6,2.1l-0.9,1.1l-3.7-3
			L49,174.5z"/>
		<path class="st3" d="M53.9,180l-1.6-1.1l0.8-1.1l4.4,3.1l-0.8,1.1l-1.6-1.1l-3.2,4.5l-1.2-0.9L53.9,180z"/>
		<path class="st3" d="M58,181.2l3.9,2.4l-0.7,1.2l-2.7-1.6l-0.7,1.1l2.5,1.5l-0.7,1.2l-2.5-1.5l-0.7,1.2l2.8,1.7l-0.7,1.2l-4.1-2.5
			L58,181.2z"/>
		<path class="st3" d="M66.1,187.9c0-0.2-0.1-0.4-0.3-0.6c-0.1-0.2-0.3-0.3-0.6-0.5c-0.2-0.1-0.5-0.2-0.8-0.2c-0.3,0-0.5,0-0.8,0.1
			c-0.2,0.1-0.5,0.2-0.7,0.4c-0.2,0.2-0.4,0.4-0.5,0.7c-0.1,0.3-0.2,0.6-0.3,0.8c0,0.3,0,0.6,0,0.8c0.1,0.3,0.2,0.5,0.3,0.7
			c0.2,0.2,0.4,0.4,0.6,0.5c0.3,0.1,0.5,0.2,0.8,0.2c0.3,0,0.5-0.1,0.8-0.2l0.7,1.4c-0.4,0.2-0.9,0.3-1.4,0.3
			c-0.5,0-0.9-0.2-1.3-0.4c-0.5-0.2-0.9-0.5-1.2-0.9c-0.3-0.4-0.6-0.7-0.7-1.2c-0.1-0.4-0.2-0.9-0.1-1.4c0-0.5,0.2-1,0.4-1.4
			s0.6-0.9,0.9-1.2c0.4-0.3,0.8-0.5,1.2-0.6c0.4-0.1,0.9-0.2,1.4-0.1c0.5,0.1,0.9,0.2,1.4,0.5c0.2,0.1,0.3,0.2,0.5,0.3
			c0.2,0.1,0.3,0.3,0.5,0.4c0.1,0.2,0.3,0.3,0.4,0.5c0.1,0.2,0.2,0.4,0.2,0.6L66.1,187.9z"/>
		<path class="st3" d="M69.3,188.9l-1.8-0.8l0.5-1.2l4.9,2.2l-0.5,1.2l-1.8-0.8l-2.2,5l-1.4-0.6L69.3,188.9z"/>
		<path class="st3" d="M78.2,191l1.2,0.4l0.7,7.4l-1.6-0.5l-0.1-1.6l-2.5-0.8l-1,1.2l-1.6-0.5L78.2,191z M78.1,193.1l-1.4,1.8
			l1.6,0.5L78.1,193.1z"/>
		<path class="st3" d="M82.6,192.4l2,0.5l1.7,5.3l0,0l1.1-4.6l1.5,0.4l-1.6,6.6l-1.9-0.5l-1.7-5.4l0,0l-1.1,4.7l-1.5-0.4L82.6,192.4
			z"/>
		<path class="st3" d="M90,194.2l2.2,0.3c0.5,0.1,1,0.2,1.5,0.4c0.5,0.2,0.9,0.5,1.2,0.8c0.3,0.3,0.6,0.7,0.7,1.2
			c0.1,0.5,0.2,1,0.1,1.6c-0.1,0.5-0.3,1-0.5,1.4c-0.3,0.4-0.6,0.7-1,0.9s-0.8,0.4-1.3,0.5c-0.5,0.1-1,0.1-1.5,0l-2.4-0.4L90,194.2z
			 M90.7,199.8l0.8,0.1c0.3,0.1,0.7,0.1,1,0c0.3,0,0.6-0.1,0.8-0.2s0.4-0.3,0.6-0.6c0.2-0.2,0.3-0.6,0.3-0.9c0.1-0.3,0-0.6-0.1-0.9
			c-0.1-0.3-0.2-0.5-0.4-0.7c-0.2-0.2-0.4-0.3-0.7-0.5c-0.3-0.1-0.6-0.2-0.9-0.3l-0.9-0.1L90.7,199.8z"/>
		<path class="st3" d="M99.8,195.4l2.5,0.1c0.4,0,0.7,0.1,1,0.1s0.6,0.2,0.8,0.4c0.2,0.2,0.4,0.4,0.5,0.7c0.1,0.3,0.2,0.6,0.2,1
			c0,0.4-0.1,0.7-0.2,1c-0.1,0.3-0.3,0.5-0.6,0.6s-0.5,0.2-0.8,0.3c-0.3,0.1-0.6,0.1-1,0.1l-1.1-0.1l-0.1,2.7l-1.5-0.1L99.8,195.4z
			 M101.2,198.4l1,0c0.1,0,0.3,0,0.4,0c0.1,0,0.2-0.1,0.3-0.1c0.1-0.1,0.2-0.1,0.3-0.2c0.1-0.1,0.1-0.2,0.1-0.4c0-0.2,0-0.3-0.1-0.4
			c-0.1-0.1-0.2-0.2-0.3-0.3c-0.1-0.1-0.3-0.1-0.4-0.1c-0.2,0-0.3,0-0.4,0l-0.8,0L101.2,198.4z"/>
		<path class="st3" d="M105.7,195.7l2.6,0c0.3,0,0.7,0,1,0.1c0.3,0.1,0.6,0.2,0.8,0.3c0.2,0.2,0.4,0.4,0.6,0.6
			c0.1,0.3,0.2,0.6,0.2,1c0,0.5-0.1,0.9-0.4,1.2c-0.2,0.3-0.6,0.6-1.1,0.7l1.8,2.8l-1.8,0l-1.5-2.7l-0.7,0l0,2.7l-1.5,0L105.7,195.7
			z M107.2,198.5l0.9,0c0.1,0,0.3,0,0.4,0c0.2,0,0.3,0,0.4-0.1c0.1-0.1,0.2-0.1,0.3-0.2c0.1-0.1,0.1-0.2,0.1-0.4
			c0-0.2,0-0.3-0.1-0.4c-0.1-0.1-0.2-0.2-0.3-0.2c-0.1-0.1-0.2-0.1-0.4-0.1c-0.1,0-0.3,0-0.4,0l-1,0L107.2,198.5z"/>
		<path class="st3" d="M111.6,199c-0.1-0.5,0-1,0.1-1.5c0.1-0.5,0.4-0.9,0.7-1.2c0.3-0.3,0.7-0.6,1.1-0.8c0.4-0.2,0.9-0.3,1.4-0.4
			c0.5-0.1,1,0,1.5,0.1s0.9,0.3,1.2,0.6c0.4,0.3,0.6,0.6,0.9,1.1c0.2,0.4,0.4,0.9,0.4,1.5c0.1,0.5,0,1-0.1,1.5
			c-0.1,0.5-0.4,0.9-0.7,1.2c-0.3,0.3-0.7,0.6-1.1,0.8c-0.4,0.2-0.9,0.3-1.4,0.4c-0.5,0.1-1,0-1.5-0.1c-0.5-0.1-0.9-0.3-1.2-0.6
			c-0.4-0.3-0.6-0.6-0.9-1.1C111.8,200,111.7,199.5,111.6,199z M113.2,198.9c0,0.3,0.1,0.6,0.2,0.9c0.1,0.3,0.3,0.5,0.5,0.6
			c0.2,0.2,0.4,0.3,0.7,0.4c0.3,0.1,0.6,0.1,0.9,0.1c0.3,0,0.6-0.1,0.9-0.2c0.2-0.1,0.5-0.3,0.6-0.5c0.2-0.2,0.3-0.5,0.4-0.7
			c0.1-0.3,0.1-0.6,0.1-0.9c0-0.3-0.1-0.6-0.2-0.9c-0.1-0.3-0.3-0.5-0.5-0.7c-0.2-0.2-0.4-0.3-0.7-0.4c-0.3-0.1-0.6-0.1-0.9-0.1
			c-0.3,0-0.6,0.1-0.9,0.2c-0.2,0.1-0.5,0.3-0.6,0.5s-0.3,0.5-0.4,0.7C113.2,198.2,113.2,198.5,113.2,198.9z"/>
		<path class="st3" d="M121,195.8l-1.9,0.3l-0.2-1.3l5.3-0.9l0.2,1.3l-1.9,0.3l0.9,5.4l-1.5,0.3L121,195.8z"/>
		<path class="st3" d="M124.7,193.8l4.5-1.1l0.3,1.3l-3,0.7l0.3,1.2l2.9-0.7l0.3,1.4l-2.9,0.7l0.3,1.3l3.2-0.8l0.3,1.4l-4.7,1.1
			L124.7,193.8z"/>
		<path class="st3" d="M135.1,192.8c-0.2-0.1-0.4-0.2-0.6-0.2c-0.2,0-0.5,0-0.8,0.1c-0.3,0.1-0.5,0.2-0.7,0.4
			c-0.2,0.2-0.4,0.4-0.5,0.6c-0.1,0.2-0.2,0.5-0.2,0.8c0,0.3,0,0.6,0.1,0.9c0.1,0.3,0.2,0.6,0.4,0.8c0.2,0.2,0.4,0.4,0.6,0.5
			c0.2,0.1,0.5,0.2,0.7,0.3c0.3,0,0.5,0,0.8-0.1c0.3-0.1,0.5-0.2,0.7-0.4s0.3-0.4,0.4-0.7l1.5,0.5c-0.2,0.5-0.4,0.9-0.8,1.2
			c-0.4,0.3-0.8,0.5-1.2,0.7c-0.5,0.2-1,0.2-1.5,0.2c-0.5,0-0.9-0.1-1.3-0.3c-0.4-0.2-0.8-0.5-1.1-0.9c-0.3-0.4-0.5-0.8-0.7-1.3
			c-0.2-0.5-0.2-1-0.2-1.5c0-0.5,0.2-0.9,0.4-1.3c0.2-0.4,0.5-0.7,0.9-1c0.4-0.3,0.8-0.5,1.3-0.7c0.2-0.1,0.4-0.1,0.6-0.1
			c0.2,0,0.4,0,0.6,0c0.2,0,0.4,0.1,0.6,0.1c0.2,0.1,0.4,0.2,0.6,0.3L135.1,192.8z"/>
		<path class="st3" d="M138.2,191.3l-1.8,0.7l-0.5-1.2l5-1.9l0.5,1.2l-1.8,0.7l2,5.1l-1.4,0.5L138.2,191.3z"/>
		<path class="st4" d="M144.9,186.5l2.1-1.1l4.1,8.3l-2.1,1.1L144.9,186.5z"/>
		<path class="st3" d="M151.9,184.6l1-0.7l3.4,2.9l0,0l-1.2-4.3l1-0.6l3.5,2.8l0,0l-1.3-4.2l1-0.6l1.6,5.8l-0.9,0.6l-3.6-2.7l0,0
			l1.2,4.3l-1,0.6L151.9,184.6z"/>
		<path class="st3" d="M159.4,179.8l0.9-0.8l3.7,2.5l0,0l-1.6-4.2l0.9-0.7l3.8,2.4l0,0l-1.7-4.1l0.9-0.7l2.1,5.6l-0.9,0.7l-3.8-2.4
			l0,0l1.6,4.2l-0.9,0.7L159.4,179.8z"/>
		<path class="st3" d="M166.4,174.1l0.9-0.8l3.9,2.1l0,0l-2-4l0.8-0.8l4,2l0,0l-2.1-3.9l0.8-0.8l2.7,5.4l-0.8,0.8l-4.1-2l0,0l2,4
			l-0.8,0.8L166.4,174.1z"/>
		<path class="st3" d="M177.6,171c-0.1,0.2-0.3,0.2-0.5,0.3s-0.4-0.1-0.6-0.2c-0.2-0.1-0.2-0.3-0.3-0.5c0-0.2,0.1-0.4,0.2-0.6
			c0.1-0.2,0.3-0.2,0.5-0.3c0.2,0,0.4,0.1,0.6,0.2c0.2,0.1,0.2,0.3,0.3,0.5S177.8,170.8,177.6,171z"/>
		<path class="st3" d="M178.7,163.1c-0.3,0-0.5,0.1-0.8,0.2c-0.2,0.1-0.4,0.3-0.6,0.5c-0.2,0.2-0.3,0.5-0.4,0.7
			c-0.1,0.2-0.1,0.5,0,0.7c0.1,0.2,0.1,0.5,0.3,0.7c0.1,0.2,0.3,0.4,0.5,0.6c0.2,0.2,0.4,0.3,0.7,0.4c0.2,0.1,0.5,0.1,0.7,0.1
			c0.2,0,0.5-0.1,0.7-0.2c0.2-0.1,0.4-0.3,0.6-0.5c0.2-0.2,0.3-0.5,0.4-0.7s0.1-0.5,0-0.8l1.1-0.1c0.1,0.4,0,0.8-0.1,1.2
			c-0.1,0.4-0.3,0.7-0.6,1c-0.3,0.3-0.6,0.6-0.9,0.8c-0.3,0.2-0.7,0.3-1.1,0.3s-0.7,0-1.1-0.1s-0.7-0.3-1.1-0.6
			c-0.3-0.3-0.6-0.6-0.8-0.9c-0.2-0.3-0.3-0.7-0.4-1.1c0-0.4,0-0.7,0.1-1.1s0.3-0.7,0.6-1.1c0.3-0.3,0.6-0.6,0.9-0.8
			c0.4-0.2,0.7-0.3,1.2-0.3L178.7,163.1z"/>
		<path class="st3" d="M176.8,159.7c-0.2-0.1-0.3-0.3-0.3-0.5c0-0.2,0-0.4,0.1-0.6c0.1-0.2,0.3-0.3,0.5-0.3s0.4,0,0.6,0.1
			c0.2,0.1,0.3,0.3,0.3,0.5c0,0.2,0,0.4-0.1,0.6c-0.1,0.2-0.3,0.3-0.5,0.3C177.1,159.9,176.9,159.9,176.8,159.7z M178.6,160.7
			l0.6-0.9l4.6,3.4l-0.6,0.9L178.6,160.7z"/>
		<path class="st3" d="M180.2,158.5l0.6-0.9l0.7,0.5l0,0c-0.1-0.1-0.1-0.3-0.2-0.5c0-0.2,0-0.3,0-0.5c0-0.2,0-0.3,0.1-0.5
			c0.1-0.2,0.1-0.3,0.2-0.5c0.1-0.1,0.2-0.3,0.3-0.4l0.9,0.7c-0.1,0.1-0.1,0.1-0.2,0.2c-0.1,0.1-0.1,0.1-0.2,0.2
			c-0.3,0.4-0.4,0.9-0.3,1.3c0.1,0.4,0.4,0.8,0.9,1.1l2.4,1.6l-0.6,0.9L180.2,158.5z"/>
		<path class="st3" d="M185.9,152.4c-0.3,0.1-0.5,0.2-0.7,0.3c-0.2,0.1-0.4,0.3-0.5,0.6c-0.2,0.3-0.2,0.5-0.3,0.7s0,0.5,0.1,0.7
			c0.1,0.2,0.2,0.4,0.4,0.6c0.2,0.2,0.4,0.4,0.6,0.5c0.2,0.1,0.5,0.2,0.7,0.3c0.2,0,0.5,0,0.7,0c0.2,0,0.5-0.1,0.7-0.3
			s0.4-0.3,0.5-0.6c0.2-0.3,0.2-0.5,0.3-0.8c0-0.2,0-0.5-0.1-0.8l1.1-0.3c0.1,0.4,0.1,0.8,0.1,1.2c-0.1,0.4-0.2,0.8-0.4,1.1
			c-0.2,0.4-0.5,0.7-0.8,0.9c-0.3,0.2-0.6,0.4-1,0.5c-0.4,0.1-0.7,0.1-1.1,0s-0.8-0.2-1.1-0.4c-0.4-0.2-0.7-0.5-0.9-0.8
			c-0.2-0.3-0.4-0.7-0.5-1c-0.1-0.4-0.1-0.7,0-1.1c0.1-0.4,0.2-0.8,0.4-1.2c0.2-0.4,0.5-0.7,0.8-0.9c0.3-0.2,0.7-0.4,1.1-0.5
			L185.9,152.4z"/>
		<path class="st3" d="M182.5,148.5l0.5-1l8,4.3l-0.5,0.9L182.5,148.5z"/>
		<path class="st3" d="M192.3,149.5c-0.1,0.2-0.2,0.3-0.5,0.4c-0.2,0.1-0.4,0.1-0.6,0c-0.2-0.1-0.3-0.2-0.4-0.5
			c-0.1-0.2-0.1-0.4,0-0.6c0.1-0.2,0.2-0.3,0.5-0.4c0.2-0.1,0.4-0.1,0.6,0c0.2,0.1,0.3,0.3,0.4,0.5
			C192.4,149.1,192.4,149.3,192.3,149.5z"/>
		<path class="st3" d="M185.1,143.2l0.5-1l8.3,3.8l-0.5,1L185.1,143.2z"/>
		<path class="st3" d="M196.5,139.6l-0.4,1l-0.8-0.3l0,0c0.2,0.2,0.4,0.5,0.4,0.9c0.1,0.4,0,0.8-0.2,1.2c-0.1,0.3-0.2,0.5-0.4,0.7
			c-0.2,0.2-0.4,0.4-0.6,0.5c-0.2,0.1-0.5,0.2-0.8,0.2c-0.3,0-0.6-0.1-1-0.2l-3.4-1.4l0.4-1l3.1,1.2c0.2,0.1,0.5,0.1,0.7,0.2
			c0.2,0,0.4,0,0.5-0.1c0.2-0.1,0.3-0.2,0.4-0.3c0.1-0.1,0.2-0.3,0.3-0.4c0.1-0.2,0.1-0.4,0.1-0.6s0-0.4-0.1-0.6s-0.2-0.4-0.4-0.5
			c-0.2-0.2-0.4-0.3-0.7-0.4l-2.7-1.1l0.4-1L196.5,139.6z"/>
		<path class="st3" d="M197.6,138l-0.6,0.7l-7.6-6.5l0.6-0.7L197.6,138z"/>
		<path class="st3" d="M193.2,131.8l0.2-1l0.9,0.2l0,0c-0.1,0-0.2-0.1-0.2-0.3c-0.1-0.1-0.2-0.3-0.2-0.5c-0.1-0.2-0.1-0.4-0.1-0.6
			s0-0.5,0.1-0.7c0.1-0.4,0.3-0.7,0.5-1s0.6-0.4,0.9-0.5c-0.3-0.3-0.5-0.6-0.6-0.9s-0.1-0.7,0-1.1c0.1-0.4,0.3-0.8,0.5-1
			c0.2-0.2,0.4-0.4,0.7-0.5c0.3-0.1,0.6-0.1,0.9-0.1s0.6,0.1,0.9,0.1l3.2,0.8l-0.3,1.1l-3.1-0.7c-0.2-0.1-0.4-0.1-0.6-0.1
			c-0.2,0-0.4,0-0.6,0c-0.2,0.1-0.3,0.1-0.4,0.3c-0.1,0.1-0.2,0.3-0.3,0.6c-0.1,0.5-0.1,0.9,0.2,1.2c0.3,0.3,0.6,0.5,1.1,0.6l3,0.7
			l-0.3,1.1l-2.9-0.7c-0.3-0.1-0.5-0.1-0.7-0.1c-0.2,0-0.4,0-0.6,0c-0.2,0-0.3,0.1-0.5,0.3c-0.1,0.1-0.2,0.3-0.3,0.6
			c0,0.2-0.1,0.4,0,0.6c0,0.2,0.1,0.4,0.2,0.5c0.1,0.2,0.3,0.3,0.5,0.5c0.2,0.1,0.5,0.2,0.8,0.3l2.9,0.7l-0.3,1.1L193.2,131.8z"/>
		<path class="st3" d="M193.3,121.7c-0.2,0-0.4-0.1-0.5-0.3c-0.1-0.2-0.2-0.4-0.1-0.6c0-0.2,0.1-0.4,0.3-0.5
			c0.2-0.1,0.4-0.2,0.6-0.1c0.2,0,0.4,0.1,0.5,0.3s0.2,0.4,0.1,0.6c0,0.2-0.1,0.4-0.3,0.5C193.7,121.7,193.5,121.7,193.3,121.7z
			 M195.4,121.8l0.2-1.1l5.6,0.9l-0.2,1.1L195.4,121.8z"/>
		<path class="st3" d="M197.6,116.3c-0.2,0.1-0.3,0.3-0.5,0.4c-0.1,0.2-0.2,0.4-0.2,0.7c0,0.3,0,0.5,0.1,0.7
			c0.1,0.2,0.2,0.3,0.4,0.3c0.2,0,0.3,0,0.4-0.1c0.1-0.1,0.2-0.2,0.3-0.4s0.1-0.3,0.2-0.5c0.1-0.2,0.1-0.3,0.1-0.4
			c0.1-0.2,0.2-0.4,0.3-0.6c0.1-0.2,0.2-0.4,0.4-0.5c0.1-0.1,0.3-0.2,0.5-0.3c0.2-0.1,0.4-0.1,0.7,0c0.3,0,0.6,0.1,0.8,0.3
			c0.2,0.2,0.4,0.4,0.5,0.6s0.2,0.5,0.2,0.8c0,0.3,0,0.6,0,0.8c-0.1,0.5-0.2,0.9-0.4,1.2c-0.2,0.3-0.5,0.6-0.9,0.9l-0.6-0.9
			c0.2-0.2,0.4-0.3,0.5-0.5c0.2-0.2,0.3-0.5,0.3-0.8c0-0.1,0-0.3,0-0.4c0-0.1,0-0.3-0.1-0.4s-0.1-0.2-0.2-0.3
			c-0.1-0.1-0.2-0.1-0.3-0.1c-0.2,0-0.3,0-0.4,0.1c-0.1,0.1-0.2,0.2-0.3,0.3c-0.1,0.1-0.1,0.3-0.2,0.4c-0.1,0.2-0.1,0.3-0.1,0.4
			c-0.1,0.2-0.2,0.4-0.3,0.6s-0.2,0.4-0.4,0.5s-0.3,0.3-0.5,0.3c-0.2,0.1-0.4,0.1-0.7,0.1c-0.3,0-0.5-0.1-0.7-0.3
			c-0.2-0.1-0.4-0.3-0.5-0.6s-0.2-0.5-0.2-0.7s0-0.5,0-0.8c0-0.4,0.2-0.7,0.3-1.1s0.5-0.6,0.8-0.7L197.6,116.3z"/>
		<path class="st3" d="M196.4,113.9l0.1-1.1l0.8,0l0,0c-0.3-0.2-0.5-0.5-0.7-0.9c-0.1-0.4-0.2-0.8-0.2-1.1c0-0.4,0.1-0.8,0.3-1.2
			c0.2-0.3,0.4-0.6,0.7-0.9c0.3-0.2,0.6-0.4,1-0.5c0.4-0.1,0.8-0.2,1.2-0.1c0.4,0,0.8,0.1,1.2,0.3c0.4,0.2,0.7,0.4,0.9,0.6
			s0.5,0.6,0.6,0.9c0.1,0.4,0.2,0.8,0.2,1.2c0,0.4-0.1,0.8-0.3,1.1c-0.2,0.4-0.4,0.6-0.7,0.8l0,0l4.2,0.2l-0.1,1.1L196.4,113.9z
			 M197.5,111c0,0.3,0,0.6,0.1,0.8c0.1,0.2,0.2,0.4,0.4,0.6c0.2,0.2,0.4,0.3,0.6,0.4c0.2,0.1,0.5,0.2,0.8,0.2c0.3,0,0.6,0,0.8-0.1
			c0.2-0.1,0.5-0.2,0.6-0.3c0.2-0.2,0.3-0.3,0.4-0.6c0.1-0.2,0.2-0.5,0.2-0.8c0-0.3,0-0.5-0.1-0.8c-0.1-0.2-0.2-0.4-0.4-0.6
			c-0.2-0.2-0.4-0.3-0.6-0.4c-0.2-0.1-0.5-0.2-0.8-0.2c-0.3,0-0.6,0-0.8,0.1c-0.2,0.1-0.5,0.2-0.6,0.3c-0.2,0.2-0.3,0.3-0.4,0.6
			C197.5,110.5,197.5,110.7,197.5,111z"/>
	</g>
	<g class="st2">
		<g>
			<g>
				<path class="st3" d="M58.1,105.2c-0.4-0.5-0.9-0.8-1.4-1.1c-0.6-0.3-1.2-0.4-2-0.4c-0.7,0-1.4,0.1-2.1,0.4s-1.2,0.7-1.6,1.2
					c-0.5,0.5-0.8,1.1-1.1,1.8c-0.3,0.7-0.4,1.5-0.4,2.3c0,0.8,0.1,1.6,0.4,2.3c0.3,0.7,0.6,1.3,1.1,1.8c0.5,0.5,1,0.9,1.6,1.2
					c0.6,0.3,1.3,0.4,2,0.4c0.8,0,1.5-0.2,2.1-0.5c0.6-0.3,1.1-0.8,1.5-1.4l3.3,2.5c-0.8,1.1-1.7,1.8-2.9,2.3
					c-1.2,0.5-2.4,0.8-3.6,0.8c-1.4,0-2.7-0.2-3.9-0.7c-1.2-0.4-2.2-1.1-3.1-1.9c-0.9-0.8-1.5-1.8-2-3c-0.5-1.2-0.7-2.5-0.7-3.9
					c0-1.4,0.2-2.7,0.7-3.9c0.5-1.2,1.1-2.2,2-3c0.9-0.8,1.9-1.4,3.1-1.9c1.2-0.4,2.5-0.7,3.9-0.7c0.5,0,1,0,1.6,0.1
					c0.5,0.1,1.1,0.2,1.6,0.4s1,0.5,1.5,0.8c0.5,0.3,0.9,0.7,1.3,1.2L58.1,105.2z"/>
			</g>
			<g>
				<path class="st3" d="M63.5,100.6h3.9v17.9h-3.9V100.6z"/>
			</g>
			<g>
				<path class="st3" d="M71,100.6h6.9c0.9,0,1.8,0.1,2.6,0.3c0.8,0.2,1.5,0.5,2.1,0.9c0.6,0.4,1.1,1,1.5,1.7
					c0.4,0.7,0.5,1.6,0.5,2.6c0,1.3-0.3,2.3-1,3.2c-0.7,0.9-1.6,1.4-2.9,1.7l4.5,7.6h-4.7l-3.7-7.1h-1.9v7.1H71V100.6z M74.9,108
					h2.3c0.4,0,0.7,0,1.1,0c0.4,0,0.8-0.1,1.1-0.2c0.3-0.1,0.6-0.3,0.8-0.6c0.2-0.3,0.3-0.6,0.3-1.1c0-0.5-0.1-0.8-0.3-1.1
					c-0.2-0.3-0.4-0.5-0.7-0.6s-0.6-0.2-1-0.3c-0.4-0.1-0.7-0.1-1.1-0.1h-2.6V108z"/>
			</g>
			<g>
				<path class="st3" d="M98.9,105.2c-0.4-0.5-0.9-0.8-1.4-1.1c-0.6-0.3-1.2-0.4-2-0.4c-0.7,0-1.4,0.1-2.1,0.4s-1.2,0.7-1.6,1.2
					c-0.5,0.5-0.8,1.1-1.1,1.8c-0.3,0.7-0.4,1.5-0.4,2.3c0,0.8,0.1,1.6,0.4,2.3c0.3,0.7,0.6,1.3,1.1,1.8c0.5,0.5,1,0.9,1.6,1.2
					c0.6,0.3,1.3,0.4,2,0.4c0.8,0,1.5-0.2,2.1-0.5c0.6-0.3,1.1-0.8,1.5-1.4l3.3,2.5c-0.8,1.1-1.7,1.8-2.9,2.3
					c-1.2,0.5-2.4,0.8-3.6,0.8c-1.4,0-2.7-0.2-3.9-0.7c-1.2-0.4-2.2-1.1-3.1-1.9c-0.9-0.8-1.5-1.8-2-3s-0.7-2.5-0.7-3.9
					c0-1.4,0.2-2.7,0.7-3.9s1.1-2.2,2-3c0.9-0.8,1.9-1.4,3.1-1.9c1.2-0.4,2.5-0.7,3.9-0.7c0.5,0,1,0,1.6,0.1
					c0.5,0.1,1.1,0.2,1.6,0.4c0.5,0.2,1,0.5,1.5,0.8c0.5,0.3,0.9,0.7,1.3,1.2L98.9,105.2z"/>
			</g>
			<g>
				<path class="st3" d="M104.3,100.6h3.9v14.2h7.3v3.6h-11.2V100.6z"/>
			</g>
		</g>
		<g>
			<g>
				<path class="st3" d="M58.1,123.9h9.6l6.6,18.7h0.1l6.6-18.7h9.5v28.7h-6.3v-22h-0.1l-7.5,22h-4.8l-7.3-22h-0.1v22h-6.3V123.9z"
					/>
			</g>
			<g>
				<path class="st3" d="M96.2,123.9h6.3v28.7h-6.3V123.9z"/>
			</g>
			<g>
				<path class="st3" d="M122.3,130.9c-0.5-0.6-1.2-1.1-2.1-1.4c-0.9-0.3-1.7-0.5-2.5-0.5c-0.5,0-0.9,0.1-1.4,0.2
					c-0.5,0.1-0.9,0.3-1.4,0.5c-0.4,0.2-0.8,0.5-1.1,0.9c-0.3,0.4-0.4,0.8-0.4,1.4c0,0.9,0.3,1.5,1,2c0.6,0.5,1.5,0.9,2.5,1.2
					c1,0.3,2,0.6,3.2,1c1.1,0.3,2.2,0.8,3.2,1.4c1,0.6,1.8,1.4,2.5,2.4c0.6,1,1,2.3,1,4c0,1.6-0.3,3-0.9,4.2c-0.6,1.2-1.4,2.2-2.4,3
					c-1,0.8-2.2,1.4-3.5,1.7c-1.3,0.4-2.8,0.6-4.2,0.6c-1.9,0-3.6-0.3-5.2-0.9c-1.6-0.6-3.1-1.5-4.5-2.8l4.5-4.9
					c0.6,0.9,1.5,1.5,2.5,2c1,0.5,2,0.7,3.1,0.7c0.5,0,1-0.1,1.6-0.2c0.5-0.1,1-0.3,1.4-0.5s0.8-0.6,1-0.9c0.3-0.4,0.4-0.8,0.4-1.3
					c0-0.9-0.3-1.5-1-2c-0.7-0.5-1.5-0.9-2.5-1.3c-1-0.4-2.1-0.7-3.2-1.1c-1.2-0.4-2.2-0.8-3.2-1.4c-1-0.6-1.8-1.4-2.5-2.4
					c-0.7-1-1-2.3-1-3.9c0-1.5,0.3-2.9,0.9-4.1c0.6-1.2,1.4-2.1,2.4-2.9s2.2-1.4,3.5-1.8c1.3-0.4,2.7-0.6,4.1-0.6
					c1.6,0,3.2,0.2,4.7,0.7c1.5,0.5,2.9,1.2,4.1,2.3L122.3,130.9z"/>
			</g>
			<g>
				<path class="st3" d="M131,123.9h10.7c1.5,0,2.9,0.1,4.2,0.4c1.3,0.3,2.5,0.7,3.5,1.4c1,0.7,1.8,1.6,2.4,2.7
					c0.6,1.1,0.9,2.5,0.9,4.2c0,1.7-0.3,3.1-0.8,4.2c-0.5,1.1-1.3,2-2.2,2.7c-0.9,0.7-2.1,1.2-3.4,1.4c-1.3,0.3-2.7,0.4-4.2,0.4
					h-4.6v11.2H131V123.9z M137.3,136.1h4.2c0.6,0,1.1-0.1,1.6-0.2c0.5-0.1,1-0.3,1.4-0.5c0.4-0.3,0.8-0.6,1-1.1
					c0.3-0.4,0.4-1,0.4-1.7c0-0.7-0.2-1.3-0.5-1.8c-0.3-0.4-0.8-0.8-1.3-1c-0.5-0.2-1.1-0.4-1.8-0.5c-0.6-0.1-1.3-0.1-1.9-0.1h-3.2
					V136.1z"/>
			</g>
		</g>
		<g>
			<g>
				<path d="M60.9,160.3h-2.7v-0.9h6.7v0.9H62v7.3h-1.2V160.3z"/>
			</g>
			<g>
				<path d="M66.9,158.9h1.2v3.7h0c0.2-0.3,0.5-0.6,0.8-0.8c0.3-0.2,0.8-0.3,1.2-0.3c0.9,0,2.3,0.5,2.3,2.5v3.5h-1.2v-3.4
					c0-1-0.4-1.8-1.5-1.8c-0.8,0-1.4,0.5-1.6,1.1c-0.1,0.1-0.1,0.3-0.1,0.5v3.6h-1.2V158.9z"/>
			</g>
			<g>
				<path d="M75.3,163.5c0-0.7,0-1.3-0.1-1.8h1l0,1.2h0.1c0.3-0.8,1-1.3,1.8-1.3c0.1,0,0.2,0,0.3,0v1c-0.1,0-0.2,0-0.4,0
					c-0.8,0-1.4,0.6-1.6,1.4c0,0.1-0.1,0.3-0.1,0.5v3.1h-1.2V163.5z"/>
			</g>
			<g>
				<path d="M81.3,164.8c0,1.4,1,2,2.2,2c0.8,0,1.4-0.1,1.8-0.3l0.2,0.8c-0.4,0.2-1.1,0.4-2.2,0.4c-2,0-3.2-1.2-3.2-3
					c0-1.8,1.2-3.2,3-3.2c2.1,0,2.7,1.7,2.7,2.8c0,0.2,0,0.4,0,0.5H81.3z M84.8,164.1c0-0.7-0.3-1.7-1.6-1.7c-1.2,0-1.7,1-1.8,1.7
					H84.8z"/>
			</g>
			<g>
				<path d="M92,167.6l-0.1-0.7h0c-0.4,0.5-1.1,0.9-2,0.9c-1.3,0-2-0.8-2-1.7c0-1.4,1.4-2.2,3.9-2.2v-0.1c0-0.5-0.1-1.4-1.5-1.4
					c-0.6,0-1.2,0.2-1.7,0.4l-0.3-0.7c0.5-0.3,1.3-0.5,2.1-0.5c2,0,2.5,1.2,2.5,2.4v2.2c0,0.5,0,1,0.1,1.4H92z M91.8,164.6
					c-1.3,0-2.7,0.2-2.7,1.3c0,0.7,0.5,1,1.1,1c0.8,0,1.4-0.5,1.6-1c0-0.1,0.1-0.2,0.1-0.3V164.6z"/>
			</g>
			<g>
				<path d="M97.2,160v1.7h1.7v0.8h-1.7v3.2c0,0.7,0.2,1.1,0.9,1.1c0.3,0,0.5,0,0.7-0.1l0.1,0.8c-0.2,0.1-0.6,0.1-1,0.1
					c-0.5,0-1-0.2-1.3-0.5c-0.3-0.3-0.5-0.8-0.5-1.5v-3.2h-1v-0.8h1v-1.4L97.2,160z"/>
			</g>
			<g>
				<path d="M105.1,166.3c0.5,0.3,1.3,0.5,2.1,0.5c1.2,0,1.9-0.6,1.9-1.4c0-0.8-0.5-1.2-1.7-1.6c-1.5-0.5-2.4-1.2-2.4-2.3
					c0-1.3,1.2-2.2,2.9-2.2c0.9,0,1.6,0.2,2,0.4l-0.3,0.9c-0.3-0.1-0.9-0.4-1.7-0.4c-1.2,0-1.7,0.7-1.7,1.2c0,0.8,0.5,1.1,1.8,1.6
					c1.5,0.5,2.3,1.2,2.3,2.4c0,1.3-1,2.4-3.2,2.4c-0.9,0-1.8-0.2-2.3-0.5L105.1,166.3z"/>
			</g>
			<g>
				<path d="M112.8,158.9h1.2v3.7h0c0.2-0.3,0.5-0.6,0.8-0.8c0.3-0.2,0.8-0.3,1.2-0.3c0.9,0,2.3,0.5,2.3,2.5v3.5h-1.2v-3.4
					c0-1-0.4-1.8-1.5-1.8c-0.8,0-1.4,0.5-1.6,1.1c-0.1,0.1-0.1,0.3-0.1,0.5v3.6h-1.2V158.9z"/>
			</g>
			<g>
				<path d="M124.8,167.6l-0.1-0.7h0c-0.4,0.5-1.1,0.9-2,0.9c-1.3,0-2-0.8-2-1.7c0-1.4,1.4-2.2,3.9-2.2v-0.1c0-0.5-0.1-1.4-1.5-1.4
					c-0.6,0-1.2,0.2-1.7,0.4l-0.3-0.7c0.5-0.3,1.3-0.5,2.1-0.5c2,0,2.5,1.2,2.5,2.4v2.2c0,0.5,0,1,0.1,1.4H124.8z M124.7,164.6
					c-1.3,0-2.7,0.2-2.7,1.3c0,0.7,0.5,1,1.1,1c0.8,0,1.4-0.5,1.6-1c0-0.1,0.1-0.2,0.1-0.3V164.6z"/>
			</g>
			<g>
				<path d="M128.7,163.5c0-0.7,0-1.3-0.1-1.8h1l0,1.2h0.1c0.3-0.8,1-1.3,1.8-1.3c0.1,0,0.2,0,0.3,0v1c-0.1,0-0.2,0-0.4,0
					c-0.8,0-1.4,0.6-1.6,1.4c0,0.1-0.1,0.3-0.1,0.5v3.1h-1.2V163.5z"/>
			</g>
			<g>
				<path d="M135.4,160c0,0.4-0.3,0.7-0.8,0.7c-0.4,0-0.7-0.3-0.7-0.7c0-0.4,0.3-0.7,0.7-0.7C135.2,159.4,135.4,159.7,135.4,160z
					 M134.1,167.6v-5.9h1.2v5.9H134.1z"/>
			</g>
			<g>
				<path d="M138.2,163.3c0-0.6,0-1.1-0.1-1.6h1l0.1,1h0c0.3-0.6,1.1-1.1,2.1-1.1c0.9,0,2.3,0.5,2.3,2.5v3.5h-1.2v-3.4
					c0-0.9-0.4-1.7-1.5-1.7c-0.8,0-1.4,0.5-1.6,1.1c-0.1,0.1-0.1,0.3-0.1,0.5v3.5h-1.2V163.3z"/>
			</g>
			<g>
				<path d="M152.3,161.7c0,0.4-0.1,0.9-0.1,1.6v3.4c0,1.4-0.3,2.2-0.9,2.7c-0.6,0.5-1.5,0.7-2.4,0.7c-0.8,0-1.6-0.2-2.2-0.5
					l0.3-0.8c0.4,0.2,1.1,0.5,1.9,0.5c1.2,0,2.1-0.6,2.1-2.1v-0.7h0c-0.4,0.5-1.1,1-2.1,1c-1.6,0-2.8-1.2-2.8-2.9
					c0-2,1.4-3.1,2.9-3.1c1.1,0,1.7,0.5,2,1h0l0.1-0.9H152.3z M151.1,164c0-0.2,0-0.3-0.1-0.5c-0.2-0.6-0.8-1.1-1.6-1.1
					c-1.1,0-1.9,0.9-1.9,2.2c0,1.2,0.6,2.1,1.9,2.1c0.7,0,1.4-0.4,1.6-1.1c0.1-0.2,0.1-0.4,0.1-0.6V164z"/>
			</g>
		</g>
		<g>
			<g>
				<g>
					<path class="st3" d="M100.2,48.4l18,10.4l-18,10.4V48.4 M108,84.4c-2.6,0.2-5.3,0-7.8-0.6V70.9L108,84.4z M127.5,44.5
						c0.3,0.4,0.6,0.9,0.8,1.3c1.1,1.9,1.9,3.8,2.5,5.8L119.6,58L127.5,44.5z M82.7,47.6c1.1-2.4,2.7-4.7,4.5-6.6l11.5,6.6H82.7z"/>
				</g>
				<g>
					<g>
						<path class="st4" d="M112.9,90.8c18.9-4,30.2-23.4,24.4-41.8l-36.4,21L112.9,90.8"/>
					</g>
				</g>
				<g>
					<path class="st4" d="M122.5,30.6c-13.5-7.8-30.3-4.9-40.4,6.2l36.5,21.1l12-20.7C128.3,34.6,125.6,32.3,122.5,30.6"/>
				</g>
				<g>
					<g>
						<path class="st4" d="M89.8,87.2c3,1.7,6.1,2.9,9.3,3.6V48.7H75.1C70.3,63.1,76.2,79.3,89.8,87.2"/>
					</g>
				</g>
			</g>
			<g>
				
					<rect x="111.9" y="51.1" transform="matrix(0.8656 -0.5007 0.5007 0.8656 -21.4856 81.8609)" class="st4" width="59.8" height="59.8"/>
			</g>
			<g>
				<circle class="st0" cx="141.8" cy="81" r="25.9"/>
			</g>
			<g>
				<g>
					<path class="st3" d="M158.1,73.1h-1v11.5c0,1.8-1,3.4-3.1,3.4h-20.4v0.5c0,1.6,1.8,3.2,3.6,3.2h15.6l6,3.5l-0.9-3.5h0.2
						c1.8,0,2.7-1.6,2.7-3.2V75.8C160.8,74.2,160,73.1,158.1,73.1z"/>
				</g>
				<g>
					<path class="st3" d="M150.9,65.1h-23.7c-2.1,0-4.5,1.9-4.5,3.6v14.4c0,1.6,2,2.8,4,3l-1.3,4.8l8.1-4.8h17.3c2.1,0,4-1.3,4-3
						V71.5v-2.7C154.9,67,153,65.1,150.9,65.1z M130.8,77.3c-1.2,0-2.1-1-2.1-2.1c0-1.2,1-2.1,2.1-2.1c1.2,0,2.1,1,2.1,2.1
						C133,76.3,132,77.3,130.8,77.3z M138.8,77.3c-1.2,0-2.1-1-2.1-2.1c0-1.2,1-2.1,2.1-2.1c1.2,0,2.1,1,2.1,2.1
						C141,76.3,140,77.3,138.8,77.3z M146.8,77.3c-1.2,0-2.1-1-2.1-2.1c0-1.2,1-2.1,2.1-2.1c1.2,0,2.1,1,2.1,2.1
						C149,76.3,148,77.3,146.8,77.3z"/>
				</g>
			</g>
		</g>
	</g>
</g>
</svg>
