<?xml version="1.0" encoding="utf-8"?>
<!-- Generator: Adobe Illustrator 19.2.0, SVG Export Plug-In . SVG Version: 6.00 Build 0)  -->
<svg version="1.1" id="Layer_1" xmlns="http://www.w3.org/2000/svg" xmlns:xlink="http://www.w3.org/1999/xlink" x="0px" y="0px"
	 viewBox="0 0 212.6 212.6" style="enable-background:new 0 0 212.6 212.6;" xml:space="preserve">
<style type="text/css">
	.st0{fill:none;stroke:#456D81;stroke-width:0.8329;stroke-linecap:square;stroke-miterlimit:10;}
	.st1{fill:#DF2E39;}
	
		.st2{display:none;fill:none;stroke:#456D81;stroke-width:0.8301;stroke-linecap:square;stroke-miterlimit:10;stroke-dasharray:0.1876,1.8762;}
	.st3{fill:#FFFFFF;}
	.st4{fill:#456D81;}
	.st5{opacity:0.3;fill:none;stroke:#456D81;stroke-width:0.535;stroke-miterlimit:10;}
</style>
<path class="st0" d="M19.2,99.7c3-45.5,40.9-81.5,87.1-81.5c46.2,0,84.1,36,87.1,81.4"/>
<g>
	<path class="st1" d="M193.1,109.5c-2.1,46.1-40.2,82.9-86.8,82.9c-46.6,0-84.7-36.8-86.8-82.9H-19c2.1,67.3,57.5,121.4,125.3,121.4
		c67.8,0,123.2-54.1,125.3-121.4H193.1z"/>
</g>
<circle class="st2" cx="106.3" cy="106.8" r="87"/>
<g>
	<path class="st3" d="M38.9,168.2l1.8,1.7l-2.6,4.1l4.2-2.6l1.8,1.7l-2.3,4.3l3.9-2.8l1.8,1.7l-7.2,4.9l-1.9-1.8l2.6-4.9l-4.7,2.9
		l-1.9-1.8L38.9,168.2z"/>
	<path class="st3" d="M48.4,176.9l5.6,4.2l-1.1,1.4l-3.5-2.6l-0.8,1.1l3.3,2.4l-1,1.4l-3.3-2.4l-1,1.3l3.6,2.7L49,188l-5.7-4.3
		L48.4,176.9z"/>
	<path class="st3" d="M59.2,184.5l3.4,1.9c0.7,0.4,1.2,0.8,1.5,1.2c0.3,0.4,0.5,0.9,0.6,1.3s0.1,1-0.1,1.5c-0.1,0.5-0.3,1-0.6,1.5
		c-0.4,0.8-0.9,1.4-1.3,1.7c-0.4,0.3-0.9,0.6-1.4,0.7c-0.5,0.1-0.9,0.1-1.4,0c-0.6-0.1-1.1-0.3-1.5-0.5l-3.4-1.9L59.2,184.5z
		 M60.6,187.4l-2.2,4.1l0.6,0.3c0.5,0.3,0.9,0.4,1.1,0.4c0.3,0,0.5-0.1,0.8-0.3c0.3-0.2,0.6-0.6,0.9-1.2c0.4-0.8,0.6-1.4,0.5-1.8
		c-0.1-0.4-0.4-0.8-1-1.1L60.6,187.4z"/>
	<path class="st3" d="M65.5,192.7c0.5-1.3,1.3-2.1,2.3-2.6c1-0.4,2.1-0.4,3.4,0.2c1.3,0.5,2.2,1.3,2.6,2.3c0.4,1,0.4,2.1-0.2,3.4
		c-0.4,0.9-0.8,1.6-1.4,2.1c-0.5,0.5-1.2,0.7-1.9,0.8c-0.7,0.1-1.5,0-2.4-0.4c-0.9-0.4-1.6-0.8-2-1.3c-0.5-0.5-0.7-1.2-0.9-1.9
		S65.2,193.6,65.5,192.7z M67.9,193.7c-0.3,0.8-0.4,1.4-0.3,1.9c0.2,0.5,0.5,0.8,1,1c0.5,0.2,1,0.2,1.4,0c0.4-0.2,0.8-0.8,1.2-1.6
		c0.3-0.7,0.4-1.3,0.2-1.8c-0.2-0.5-0.5-0.8-1-1c-0.5-0.2-1-0.2-1.4,0C68.7,192.4,68.3,192.9,67.9,193.7z"/>
	<path class="st3" d="M80.4,193.7l7.7,1.9l-0.5,2l-2.6-0.6l-1.5,6.2l-2.5-0.6l1.5-6.2l-2.6-0.6L80.4,193.7z"/>
	<path class="st3" d="M88.3,200c0.2-1.4,0.7-2.4,1.6-3c0.9-0.7,2-0.9,3.3-0.7c1.4,0.2,2.4,0.7,3.1,1.6c0.6,0.9,0.9,2,0.7,3.3
		c-0.1,1-0.4,1.8-0.8,2.3c-0.4,0.6-1,1-1.6,1.3c-0.7,0.3-1.5,0.3-2.4,0.2c-0.9-0.1-1.7-0.4-2.3-0.8c-0.6-0.4-1-0.9-1.3-1.6
		C88.2,201.8,88.1,201,88.3,200z M90.9,200.3c-0.1,0.8,0,1.5,0.2,1.9c0.3,0.4,0.7,0.7,1.2,0.7c0.6,0.1,1,0,1.4-0.4
		c0.4-0.3,0.6-0.9,0.7-1.9c0.1-0.8,0-1.4-0.2-1.8c-0.3-0.4-0.7-0.7-1.2-0.7c-0.5-0.1-1,0.1-1.3,0.4C91.2,198.9,91,199.5,90.9,200.3z
		"/>
	<path class="st3" d="M98.7,201.3c0-1.4,0.5-2.5,1.2-3.2c0.8-0.8,1.9-1.1,3.2-1.1c1.4,0,2.5,0.4,3.2,1.2c0.7,0.8,1.1,1.9,1.1,3.2
		c0,1-0.2,1.8-0.6,2.4c-0.4,0.6-0.8,1.1-1.5,1.4c-0.6,0.3-1.4,0.5-2.4,0.5c-1,0-1.7-0.2-2.4-0.5c-0.6-0.3-1.1-0.8-1.5-1.5
		C98.8,203.2,98.7,202.3,98.7,201.3z M101.3,201.4c0,0.9,0.1,1.5,0.4,1.9c0.3,0.4,0.7,0.6,1.3,0.6c0.6,0,1-0.2,1.3-0.5
		c0.3-0.4,0.5-1,0.5-2c0-0.8-0.1-1.4-0.4-1.8c-0.3-0.4-0.7-0.6-1.3-0.6c-0.5,0-1,0.2-1.3,0.5C101.5,199.9,101.3,200.5,101.3,201.4z"
		/>
	<path class="st3" d="M113.5,201.4l3.4-0.3l0.2,1.8l-3.4,0.3L113.5,201.4z"/>
	<path class="st3" d="M125.7,195l2.6-0.6l1,4.5c0.2,0.9,0.3,1.7,0.2,2.2s-0.3,1-0.7,1.5c-0.4,0.5-1,0.8-1.8,0.9
		c-0.8,0.2-1.5,0.2-2,0.1c-0.5-0.1-0.9-0.4-1.3-0.8c-0.3-0.4-0.6-0.9-0.8-1.5l2.4-0.9c0.1,0.4,0.2,0.6,0.3,0.8
		c0.1,0.2,0.2,0.3,0.4,0.4c0.1,0,0.3,0.1,0.4,0c0.3-0.1,0.5-0.2,0.6-0.5c0.1-0.2,0.1-0.6,0-1.1L125.7,195z"/>
	<path class="st3" d="M131.2,198.1c-0.4-1.3-0.4-2.5,0.1-3.4s1.4-1.7,2.7-2.1c1.3-0.4,2.5-0.4,3.4,0.1c1,0.5,1.7,1.4,2.1,2.7
		c0.3,0.9,0.4,1.8,0.3,2.5s-0.4,1.3-0.9,1.9c-0.5,0.5-1.2,0.9-2.1,1.2c-0.9,0.3-1.7,0.4-2.4,0.3c-0.7-0.1-1.3-0.4-1.9-0.9
		C132,199.8,131.5,199,131.2,198.1z M133.7,197.3c0.3,0.8,0.6,1.3,1,1.6c0.4,0.3,0.9,0.3,1.4,0.1c0.5-0.2,0.9-0.5,1.1-0.9
		c0.2-0.4,0.1-1.1-0.2-2c-0.2-0.8-0.6-1.3-1-1.5c-0.4-0.2-0.9-0.3-1.4-0.1c-0.5,0.2-0.8,0.5-1,0.9
		C133.4,195.8,133.5,196.5,133.7,197.3z"/>
	<path class="st3" d="M139.9,190.6l2.4-1l3.3,7.8l-2.4,1L139.9,190.6z"/>
	<path class="st3" d="M144.4,188.7l2.2-1.1l5,2.7l-2.2-4.2l2.2-1.1l3.9,7.5l-2.2,1.1l-5-2.7l2.2,4.1l-2.2,1.1L144.4,188.7z"/>
	<path class="st3" d="M161.3,178.3l2.1-1.6l3,4c0.3,0.4,0.5,0.8,0.7,1.3s0.2,0.9,0.1,1.4c-0.1,0.5-0.2,0.9-0.4,1.2
		c-0.3,0.5-0.7,0.9-1.3,1.3c-0.3,0.2-0.7,0.5-1.1,0.7c-0.4,0.2-0.8,0.4-1.2,0.5c-0.4,0.1-0.8,0-1.2,0c-0.4-0.1-0.8-0.2-1-0.5
		c-0.5-0.3-0.8-0.7-1.1-1l-3-4l2.1-1.6l3.1,4.1c0.3,0.4,0.6,0.6,1,0.6c0.4,0.1,0.7-0.1,1.1-0.3c0.4-0.3,0.6-0.6,0.6-0.9
		c0.1-0.4-0.1-0.7-0.3-1.1L161.3,178.3z"/>
	<path class="st3" d="M168.4,179.9l1.7-1.8c0.3,0.3,0.6,0.4,0.9,0.5c0.4,0.1,0.8-0.1,1.2-0.4c0.3-0.3,0.4-0.5,0.5-0.8
		c0-0.3,0-0.5-0.2-0.7c-0.1-0.2-0.4-0.2-0.6-0.2c-0.3,0-0.7,0.2-1.3,0.5c-1,0.6-1.9,0.9-2.5,0.9c-0.7,0-1.2-0.2-1.7-0.7
		c-0.3-0.3-0.5-0.7-0.6-1.2c-0.1-0.5,0-0.9,0.2-1.4s0.7-1.1,1.3-1.7c0.8-0.7,1.5-1.1,2.2-1.2s1.4,0.2,2,0.7l-1.7,1.8
		c-0.3-0.2-0.6-0.3-0.9-0.3c-0.3,0-0.5,0.1-0.8,0.4c-0.2,0.2-0.3,0.4-0.4,0.6s0,0.4,0.2,0.5c0.1,0.1,0.2,0.1,0.4,0.1
		c0.2,0,0.5-0.1,0.9-0.4c1-0.6,1.8-1,2.3-1.1c0.5-0.2,1-0.2,1.4,0c0.4,0.1,0.8,0.4,1.1,0.7c0.4,0.4,0.6,0.9,0.7,1.4
		c0.1,0.5,0,1.1-0.2,1.6c-0.2,0.5-0.7,1.1-1.3,1.6c-1.1,1-2,1.5-2.8,1.4C169.7,180.8,169,180.5,168.4,179.9z"/>
	<path class="st3" d="M171.2,169.4l1.7-1.8l1.4,1.3l2.5,3l-1.1,1.1l-3.2-2.3L171.2,169.4z M175.9,173.7l1.6-1.7l1.5,1.4l-1.6,1.7
		L175.9,173.7z"/>
</g>
<g>
	<path class="st4" d="M11.2,87.1c-0.2,0.1-0.4,0.3-0.5,0.4c-0.1,0.2-0.2,0.4-0.3,0.7c0,0.3,0,0.5,0,0.8c0.1,0.2,0.2,0.5,0.3,0.7
		c0.2,0.2,0.4,0.4,0.6,0.5c0.2,0.1,0.5,0.2,0.8,0.3c0.3,0.1,0.6,0.1,0.9,0c0.3,0,0.5-0.1,0.7-0.3c0.2-0.1,0.4-0.3,0.5-0.5
		c0.1-0.2,0.2-0.4,0.3-0.7c0.1-0.3,0-0.6,0-0.8c-0.1-0.2-0.2-0.5-0.4-0.6l1.1-1c0.3,0.3,0.6,0.7,0.7,1.2c0.1,0.4,0.1,0.9,0,1.3
		c-0.1,0.5-0.2,1-0.5,1.3c-0.2,0.4-0.5,0.7-0.9,1c-0.3,0.3-0.7,0.4-1.2,0.5c-0.4,0.1-0.9,0.1-1.4,0c-0.5-0.1-1-0.3-1.4-0.5
		c-0.4-0.2-0.7-0.5-0.9-0.9c-0.2-0.4-0.4-0.8-0.5-1.2c-0.1-0.5-0.1-0.9,0-1.4c0-0.2,0.1-0.4,0.2-0.6c0.1-0.2,0.2-0.4,0.3-0.6
		c0.1-0.2,0.2-0.3,0.4-0.5c0.2-0.2,0.3-0.3,0.5-0.4L11.2,87.1z"/>
	<path class="st4" d="M14.8,80.6L10.6,82l0.5-1.7l2.7-0.7l-2-2.1l0.5-1.6l2.9,3.4l2.7,0.8l-0.4,1.4L14.8,80.6z"/>
	<path class="st4" d="M13.7,71.9l0.9-2.3c0.1-0.3,0.2-0.5,0.4-0.8c0.1-0.3,0.3-0.5,0.5-0.6c0.2-0.2,0.4-0.3,0.7-0.3
		c0.3-0.1,0.5,0,0.9,0.1c0.3,0.1,0.6,0.3,0.7,0.6c0.2,0.3,0.2,0.6,0.2,0.9l0,0c0.1-0.2,0.2-0.3,0.4-0.5s0.3-0.2,0.5-0.3
		s0.4-0.1,0.6-0.1c0.2,0,0.4,0,0.6,0.1c0.3,0.1,0.6,0.3,0.7,0.5s0.3,0.5,0.3,0.7c0,0.3,0,0.6,0,0.8c0,0.3-0.1,0.6-0.2,0.8l-1,2.5
		L13.7,71.9z M16.6,71.6l0.4-1c0-0.1,0.1-0.2,0.1-0.3c0-0.1,0-0.2,0-0.3c0-0.1-0.1-0.2-0.1-0.3c-0.1-0.1-0.2-0.1-0.3-0.2
		c-0.1,0-0.2-0.1-0.3,0c-0.1,0-0.2,0.1-0.3,0.1c-0.1,0.1-0.2,0.2-0.2,0.3c-0.1,0.1-0.1,0.2-0.2,0.3L15.3,71L16.6,71.6z M19.1,72.5
		l0.5-1.2c0-0.1,0.1-0.2,0.1-0.3c0-0.1,0-0.2,0-0.3c0-0.1-0.1-0.2-0.1-0.3s-0.2-0.2-0.3-0.2c-0.1-0.1-0.3-0.1-0.4,0
		s-0.2,0.1-0.3,0.2c-0.1,0.1-0.2,0.2-0.2,0.3c-0.1,0.1-0.1,0.2-0.2,0.3l-0.4,1L19.1,72.5z"/>
	<path class="st4" d="M17.5,63l2-3.9l1.2,0.6l-1.4,2.7l1.1,0.6l1.3-2.5l1.2,0.6l-1.3,2.5l1.2,0.6l1.4-2.8l1.2,0.6l-2.1,4.1L17.5,63z
		"/>
	<path class="st4" d="M22,54.7l1.4-2.1c0.2-0.3,0.4-0.5,0.6-0.7c0.2-0.2,0.4-0.4,0.7-0.5c0.2-0.1,0.5-0.1,0.8-0.1
		c0.3,0,0.6,0.1,0.9,0.3c0.4,0.2,0.7,0.6,0.8,0.9c0.1,0.4,0.1,0.8,0,1.2l3.2,0.1l-0.9,1.5L26.4,55L26,55.6l2.2,1.4l-0.8,1.2L22,54.7
		z M25,54.9l0.5-0.7c0.1-0.1,0.1-0.2,0.2-0.4c0.1-0.1,0.1-0.3,0.1-0.4c0-0.1,0-0.2,0-0.4c0-0.1-0.1-0.2-0.3-0.3
		c-0.1-0.1-0.3-0.1-0.4-0.1c-0.1,0-0.2,0-0.3,0.1c-0.1,0.1-0.2,0.1-0.3,0.2c-0.1,0.1-0.2,0.2-0.2,0.3l-0.5,0.8L25,54.9z"/>
	<path class="st4" d="M31.3,44.4c-0.2,0-0.4,0.1-0.6,0.2c-0.2,0.1-0.4,0.3-0.6,0.5c-0.2,0.2-0.3,0.4-0.3,0.7c-0.1,0.2-0.1,0.5,0,0.7
		c0,0.2,0.1,0.5,0.3,0.7c0.1,0.2,0.3,0.4,0.6,0.6c0.2,0.2,0.5,0.3,0.8,0.4c0.3,0.1,0.5,0.1,0.8,0.1c0.2,0,0.5-0.1,0.7-0.2
		c0.2-0.1,0.4-0.3,0.6-0.5c0.2-0.2,0.3-0.5,0.3-0.7s0-0.5-0.1-0.8l1.4-0.4c0.1,0.5,0.1,0.9,0,1.4c-0.1,0.4-0.3,0.8-0.6,1.2
		c-0.3,0.4-0.7,0.7-1.1,1c-0.4,0.2-0.8,0.4-1.2,0.5c-0.4,0.1-0.9,0-1.3-0.1c-0.4-0.1-0.9-0.4-1.3-0.7c-0.4-0.3-0.7-0.7-1-1.1
		c-0.2-0.4-0.4-0.8-0.4-1.2c0-0.4,0-0.9,0.1-1.3c0.1-0.4,0.4-0.9,0.7-1.3c0.1-0.1,0.2-0.3,0.4-0.4c0.1-0.1,0.3-0.3,0.5-0.4
		c0.2-0.1,0.4-0.2,0.6-0.3c0.2-0.1,0.4-0.1,0.7-0.1L31.3,44.4z"/>
	<path class="st4" d="M33.8,38.9l1.8-1.8c0.2-0.2,0.5-0.4,0.7-0.6c0.3-0.2,0.5-0.3,0.8-0.3c0.3-0.1,0.5,0,0.8,0
		c0.3,0.1,0.5,0.3,0.8,0.5c0.3,0.3,0.5,0.7,0.6,1.1c0.1,0.4,0,0.8-0.3,1.2l3.1,0.7l-1.2,1.2l-2.8-0.8l-0.5,0.5l1.9,1.8l-1,1
		L33.8,38.9z M36.7,39.8l0.6-0.6c0.1-0.1,0.2-0.2,0.3-0.3c0.1-0.1,0.2-0.2,0.2-0.3c0-0.1,0.1-0.2,0-0.4c0-0.1-0.1-0.2-0.2-0.4
		c-0.1-0.1-0.2-0.2-0.4-0.2c-0.1,0-0.2,0-0.3,0c-0.1,0-0.2,0.1-0.3,0.2c-0.1,0.1-0.2,0.2-0.3,0.3l-0.7,0.7L36.7,39.8z"/>
	<path class="st4" d="M40.6,32.2l1.1-1l4.3,4.9l-1.1,0.9L40.6,32.2z"/>
	<path class="st4" d="M45.5,28l1.8-1.3l3.7,2.6l0,0L49.7,25l1.8-1.3l3.8,5.3l-1.2,0.8l-2.9-4.1l0,0l1.5,5.1l-0.9,0.6l-4.3-3.1l0,0
		l2.9,4.1l-1.2,0.8L45.5,28z"/>
	<path class="st4" d="M55.7,21.1l1.2-0.7l3.3,5.6L59,26.7L55.7,21.1z"/>
	<path class="st4" d="M61.3,18l1.8-0.8l4.4,2.9l0,0l-1.9-4.1l1.3-0.6l2.8,5.9L68,22l-4.6-3l0,0l2,4.2l-1.3,0.6L61.3,18z"/>
	<path class="st4" d="M73.7,12.7l1.1-0.4l4.8,5.3L78,18.1l-1-1.1l-2.4,0.8l-0.1,1.5l-1.5,0.5L73.7,12.7z M74.8,14.4l-0.1,2.2
		l1.5-0.5L74.8,14.4z"/>
	<path class="st4" d="M81.7,10.3l1.4-0.3l1.2,5.1l2.6-0.6l0.3,1.3l-4,0.9L81.7,10.3z"/>
	<path class="st4" d="M93.5,9.7c-0.1-0.1-0.3-0.2-0.5-0.3c-0.2,0-0.4,0-0.6,0c-0.1,0-0.2,0-0.3,0.1c-0.1,0-0.2,0.1-0.3,0.2
		c-0.1,0.1-0.2,0.1-0.2,0.2s-0.1,0.2,0,0.3c0,0.2,0.1,0.3,0.3,0.4c0.2,0.1,0.4,0.1,0.6,0.2c0.2,0,0.5,0.1,0.7,0.1
		c0.3,0,0.5,0.1,0.8,0.2s0.5,0.3,0.6,0.5c0.2,0.2,0.3,0.5,0.3,0.9c0.1,0.4,0,0.7-0.1,1c-0.1,0.3-0.2,0.5-0.4,0.7
		c-0.2,0.2-0.4,0.4-0.7,0.5s-0.6,0.2-0.9,0.3c-0.4,0.1-0.8,0.1-1.2,0c-0.4-0.1-0.7-0.2-1.1-0.5l0.9-1.3c0.2,0.2,0.4,0.3,0.6,0.4
		c0.2,0.1,0.5,0.1,0.7,0.1c0.1,0,0.2,0,0.3-0.1c0.1,0,0.2-0.1,0.3-0.2c0.1-0.1,0.2-0.1,0.2-0.2c0-0.1,0.1-0.2,0-0.3
		c0-0.2-0.1-0.3-0.3-0.4c-0.2-0.1-0.4-0.2-0.6-0.2c-0.2,0-0.5-0.1-0.8-0.1c-0.3,0-0.5-0.1-0.8-0.2c-0.2-0.1-0.5-0.3-0.6-0.4
		c-0.2-0.2-0.3-0.5-0.3-0.8c0-0.3,0-0.7,0.1-0.9c0.1-0.3,0.2-0.5,0.5-0.7c0.2-0.2,0.4-0.4,0.7-0.5c0.3-0.1,0.6-0.2,0.9-0.3
		C92.6,8,93,8,93.4,8.1c0.4,0.1,0.7,0.2,1,0.4L93.5,9.7z"/>
	<path class="st4" d="M108.5,8.8c-0.1-0.1-0.3-0.3-0.5-0.3c-0.2-0.1-0.4-0.1-0.6-0.1c-0.1,0-0.2,0-0.3,0c-0.1,0-0.2,0.1-0.3,0.1
		c-0.1,0.1-0.2,0.1-0.2,0.2c-0.1,0.1-0.1,0.2-0.1,0.3c0,0.2,0.1,0.3,0.2,0.5c0.1,0.1,0.3,0.2,0.6,0.3c0.2,0.1,0.5,0.2,0.7,0.2
		c0.3,0.1,0.5,0.2,0.7,0.3c0.2,0.1,0.4,0.3,0.6,0.6c0.1,0.2,0.2,0.5,0.2,0.9c0,0.4-0.1,0.7-0.2,0.9c-0.1,0.3-0.3,0.5-0.6,0.7
		c-0.2,0.2-0.5,0.3-0.8,0.4c-0.3,0.1-0.6,0.1-1,0.1c-0.4,0-0.8-0.1-1.2-0.2c-0.4-0.1-0.7-0.3-1-0.6l1-1.1c0.1,0.2,0.3,0.4,0.6,0.5
		c0.2,0.1,0.5,0.2,0.7,0.2c0.1,0,0.2,0,0.4,0c0.1,0,0.2-0.1,0.3-0.1s0.2-0.1,0.2-0.2c0.1-0.1,0.1-0.2,0.1-0.3c0-0.2-0.1-0.4-0.2-0.5
		c-0.1-0.1-0.3-0.2-0.6-0.3c-0.2-0.1-0.5-0.2-0.7-0.2c-0.3-0.1-0.5-0.2-0.7-0.3c-0.2-0.1-0.4-0.3-0.6-0.5c-0.1-0.2-0.2-0.5-0.2-0.9
		c0-0.4,0.1-0.7,0.2-0.9c0.1-0.3,0.3-0.5,0.6-0.7c0.2-0.2,0.5-0.3,0.8-0.4c0.3-0.1,0.6-0.1,0.9-0.1c0.4,0,0.7,0.1,1.1,0.2
		c0.3,0.1,0.7,0.3,0.9,0.5L108.5,8.8z"/>
	<path class="st4" d="M114.3,7.5l1.4,0.2l-0.3,2.4l2.8,0.3l0.3-2.4l1.4,0.2l-0.7,6.5l-1.4-0.2l0.3-2.8l-2.8-0.3l-0.3,2.8l-1.4-0.2
		L114.3,7.5z"/>
	<path class="st4" d="M127,9.5l1.2,0.3l1.3,7l-1.6-0.4l-0.2-1.5l-2.5-0.6l-0.8,1.2l-1.5-0.3L127,9.5z M127.1,11.5l-1.2,1.8l1.6,0.4
		L127.1,11.5z"/>
	<path class="st4" d="M135.1,11.6l2.4,0.8c0.3,0.1,0.6,0.2,0.9,0.4c0.3,0.2,0.5,0.3,0.6,0.6s0.3,0.5,0.3,0.7c0,0.3,0,0.6-0.1,1
		c-0.1,0.4-0.4,0.8-0.7,1c-0.3,0.2-0.7,0.3-1.2,0.2l0.7,3.1l-1.6-0.5l-0.5-2.9l-0.7-0.2l-0.8,2.5l-1.4-0.5L135.1,11.6z M135.6,14.6
		l0.8,0.3c0.1,0,0.3,0.1,0.4,0.1c0.1,0,0.3,0.1,0.4,0c0.1,0,0.2,0,0.3-0.1c0.1-0.1,0.2-0.2,0.2-0.4c0.1-0.2,0.1-0.3,0-0.4
		c0-0.1-0.1-0.2-0.2-0.3c-0.1-0.1-0.2-0.2-0.3-0.2c-0.1-0.1-0.2-0.1-0.4-0.2l-0.9-0.3L135.6,14.6z"/>
	<path class="st4" d="M144.2,14.9l4,1.8l-0.5,1.2l-2.7-1.2l-0.5,1.1l2.6,1.2l-0.5,1.2l-2.6-1.2l-0.5,1.2l2.9,1.3l-0.5,1.2l-4.2-1.9
		L144.2,14.9z"/>
	<path class="st4" d="M158.5,23.9l-1.6-1l0.7-1.1l4.3,2.8l-0.7,1.1l-1.6-1l-2.9,4.4l-1.2-0.8L158.5,23.9z"/>
	<path class="st4" d="M165.5,27.3l1.1,0.9l-1.5,1.9l2.2,1.8l1.5-1.9l1.1,0.9l-4.1,5.1l-1.1-0.9l1.8-2.2l-2.2-1.7l-1.8,2.2l-1.1-0.9
		L165.5,27.3z"/>
	<path class="st4" d="M173.7,34.3l3.1,3.1l-0.9,0.9l-2.1-2.1l-0.9,0.9l2,2L174,40l-2-2l-0.9,0.9l2.2,2.2l-0.9,0.9l-3.3-3.2
		L173.7,34.3z"/>
	<path class="st4" d="M180.2,41l0.9,1.1l-5,4.3l-0.9-1.1L180.2,41z"/>
	<path class="st4" d="M184.2,45.9l1.5,2c0.2,0.3,0.4,0.5,0.5,0.8c0.1,0.3,0.2,0.6,0.2,0.8c0,0.3,0,0.5-0.2,0.8
		c-0.1,0.3-0.3,0.5-0.7,0.7c-0.4,0.3-0.8,0.4-1.2,0.4c-0.4,0-0.8-0.2-1.1-0.5l-1.3,3l-1-1.4l1.3-2.6l-0.4-0.6l-2.1,1.5l-0.8-1.2
		L184.2,45.9z M182.9,48.7l0.5,0.7c0.1,0.1,0.2,0.2,0.3,0.3c0.1,0.1,0.2,0.2,0.3,0.3c0.1,0.1,0.2,0.1,0.3,0.1c0.1,0,0.3,0,0.4-0.1
		c0.1-0.1,0.2-0.2,0.3-0.3c0-0.1,0.1-0.2,0-0.3c0-0.1-0.1-0.2-0.1-0.4c-0.1-0.1-0.1-0.2-0.2-0.3l-0.6-0.8L182.9,48.7z"/>
	<path class="st4" d="M192.8,59.3l1,1.9c0.2,0.5,0.4,0.9,0.5,1.4c0.1,0.5,0.1,0.9,0,1.4c-0.1,0.4-0.3,0.8-0.5,1.2
		c-0.3,0.4-0.7,0.7-1.2,1c-0.5,0.2-0.9,0.4-1.4,0.4c-0.4,0-0.9-0.1-1.3-0.3c-0.4-0.2-0.8-0.4-1.1-0.8c-0.3-0.3-0.6-0.7-0.8-1.1
		l-1-2.1L192.8,59.3z M188.8,62.9l0.3,0.7c0.1,0.3,0.3,0.6,0.5,0.8c0.2,0.2,0.4,0.4,0.6,0.5c0.2,0.1,0.5,0.2,0.8,0.2
		c0.3,0,0.6-0.1,0.9-0.3c0.3-0.1,0.5-0.3,0.7-0.5c0.2-0.2,0.3-0.4,0.3-0.7c0-0.3,0-0.5,0-0.8c-0.1-0.3-0.1-0.6-0.3-0.8l-0.4-0.8
		L188.8,62.9z"/>
	<path class="st4" d="M198.1,71.1l0.4,1.1l-5.2,4.9l-0.6-1.5l1.1-1l-0.9-2.4l-1.5,0l-0.5-1.5L198.1,71.1z M196.5,72.3l-2.2,0
		l0.5,1.5L196.5,72.3z"/>
	<path class="st4" d="M199.6,79.7l-0.5-1.8l1.2-0.3l1.3,5l-1.2,0.3l-0.5-1.8l-5.1,1.4l-0.4-1.4L199.6,79.7z"/>
	<path class="st4" d="M202.8,88.2l0.2,1.2l-5.9,3.9l-0.3-1.6l1.3-0.8l-0.4-2.5l-1.5-0.3l-0.3-1.6L202.8,88.2z M201,89l-2.1-0.4
		l0.3,1.6L201,89z"/>
</g>
<g>
	<path class="st4" d="M60.4,90C60,89.6,59.5,89.2,59,89c-0.6-0.3-1.2-0.4-2-0.4c-0.7,0-1.4,0.1-2.1,0.4s-1.2,0.7-1.6,1.2
		c-0.5,0.5-0.8,1.1-1.1,1.8c-0.3,0.7-0.4,1.5-0.4,2.3c0,0.8,0.1,1.6,0.4,2.3c0.3,0.7,0.6,1.3,1.1,1.8c0.5,0.5,1,0.9,1.6,1.2
		c0.6,0.3,1.3,0.4,2,0.4c0.8,0,1.5-0.2,2.1-0.5c0.6-0.3,1.1-0.8,1.5-1.4l3.3,2.5c-0.8,1.1-1.7,1.8-2.9,2.3c-1.2,0.5-2.4,0.8-3.6,0.8
		c-1.4,0-2.7-0.2-3.9-0.7c-1.2-0.4-2.2-1.1-3.1-1.9c-0.9-0.8-1.5-1.8-2-3s-0.7-2.5-0.7-3.9c0-1.4,0.2-2.7,0.7-3.9s1.1-2.2,2-3
		c0.9-0.8,1.9-1.4,3.1-1.9c1.2-0.4,2.5-0.7,3.9-0.7c0.5,0,1,0,1.6,0.1c0.5,0.1,1.1,0.2,1.6,0.4c0.5,0.2,1,0.5,1.5,0.8
		c0.5,0.3,0.9,0.7,1.3,1.2L60.4,90z"/>
	<path class="st4" d="M65.7,85.4h3.9v17.9h-3.9V85.4z"/>
	<path class="st4" d="M73.2,85.4h6.9c0.9,0,1.8,0.1,2.6,0.3c0.8,0.2,1.5,0.5,2.1,0.9c0.6,0.4,1.1,1,1.5,1.7c0.4,0.7,0.5,1.6,0.5,2.6
		c0,1.3-0.3,2.3-1,3.2c-0.7,0.9-1.6,1.4-2.9,1.7l4.5,7.6h-4.7l-3.7-7.1h-1.9v7.1h-3.9V85.4z M77.2,92.8h2.3c0.4,0,0.7,0,1.1,0
		c0.4,0,0.8-0.1,1.1-0.2c0.3-0.1,0.6-0.3,0.8-0.6c0.2-0.3,0.3-0.6,0.3-1.1c0-0.5-0.1-0.8-0.3-1.1c-0.2-0.3-0.4-0.5-0.7-0.6
		s-0.6-0.2-1-0.3c-0.4-0.1-0.7-0.1-1.1-0.1h-2.6V92.8z"/>
	<path class="st4" d="M101.1,90c-0.4-0.5-0.9-0.8-1.4-1.1c-0.6-0.3-1.2-0.4-2-0.4c-0.7,0-1.4,0.1-2.1,0.4c-0.6,0.3-1.2,0.7-1.6,1.2
		c-0.5,0.5-0.8,1.1-1.1,1.8c-0.3,0.7-0.4,1.5-0.4,2.3c0,0.8,0.1,1.6,0.4,2.3c0.3,0.7,0.6,1.3,1.1,1.8c0.5,0.5,1,0.9,1.6,1.2
		c0.6,0.3,1.3,0.4,2,0.4c0.8,0,1.5-0.2,2.1-0.5c0.6-0.3,1.1-0.8,1.5-1.4l3.3,2.5c-0.8,1.1-1.7,1.8-2.9,2.3c-1.2,0.5-2.4,0.8-3.6,0.8
		c-1.4,0-2.7-0.2-3.9-0.7c-1.2-0.4-2.2-1.1-3.1-1.9c-0.9-0.8-1.5-1.8-2-3c-0.5-1.2-0.7-2.5-0.7-3.9c0-1.4,0.2-2.7,0.7-3.9
		c0.5-1.2,1.1-2.2,2-3c0.9-0.8,1.9-1.4,3.1-1.9c1.2-0.4,2.5-0.7,3.9-0.7c0.5,0,1,0,1.6,0.1c0.5,0.1,1.1,0.2,1.6,0.4
		c0.5,0.2,1,0.5,1.5,0.8c0.5,0.3,0.9,0.7,1.3,1.2L101.1,90z"/>
	<path class="st4" d="M106.5,85.4h3.9v14.2h7.3v3.6h-11.2V85.4z"/>
</g>
<g>
	<path class="st4" d="M48.6,108.9h11.7l8.1,22.9h0.1l8.1-22.9h11.7v35.2h-7.7v-27h-0.1l-9.2,27h-5.9l-8.9-27h-0.1v27h-7.7V108.9z"/>
	<path class="st4" d="M95.3,108.9h7.7v35.2h-7.7V108.9z"/>
	<path class="st4" d="M127.3,117.5c-0.6-0.8-1.5-1.4-2.6-1.8c-1.1-0.4-2.1-0.6-3.1-0.6c-0.6,0-1.1,0.1-1.7,0.2
		c-0.6,0.1-1.2,0.3-1.7,0.6c-0.5,0.3-1,0.7-1.3,1.1c-0.3,0.5-0.5,1-0.5,1.7c0,1.1,0.4,1.9,1.2,2.4c0.8,0.6,1.8,1,3,1.4
		c1.2,0.4,2.5,0.8,3.9,1.2c1.4,0.4,2.7,1,3.9,1.7c1.2,0.7,2.2,1.7,3,2.9c0.8,1.2,1.2,2.9,1.2,4.9c0,2-0.4,3.7-1.1,5.1
		c-0.7,1.5-1.7,2.7-3,3.6c-1.2,1-2.7,1.7-4.3,2.1c-1.6,0.5-3.4,0.7-5.2,0.7c-2.3,0-4.4-0.3-6.4-1c-2-0.7-3.8-1.8-5.5-3.4l5.5-6.1
		c0.8,1.1,1.8,1.9,3,2.5c1.2,0.6,2.5,0.9,3.8,0.9c0.6,0,1.3-0.1,1.9-0.2c0.6-0.1,1.2-0.4,1.7-0.7c0.5-0.3,0.9-0.7,1.2-1.1
		c0.3-0.5,0.5-1,0.5-1.6c0-1.1-0.4-1.9-1.2-2.5c-0.8-0.6-1.8-1.1-3.1-1.6c-1.2-0.4-2.5-0.9-4-1.3c-1.4-0.4-2.7-1-4-1.7
		c-1.2-0.7-2.2-1.7-3.1-2.9c-0.8-1.2-1.2-2.8-1.2-4.7c0-1.9,0.4-3.5,1.1-5c0.7-1.4,1.7-2.6,3-3.6c1.2-1,2.7-1.7,4.3-2.2
		c1.6-0.5,3.3-0.7,5-0.7c2,0,3.9,0.3,5.8,0.8c1.9,0.6,3.5,1.5,5,2.8L127.3,117.5z"/>
	<path class="st4" d="M137.9,108.9H151c1.8,0,3.5,0.2,5.2,0.5c1.6,0.3,3,0.9,4.2,1.7c1.2,0.8,2.2,1.9,2.9,3.3
		c0.7,1.4,1.1,3.1,1.1,5.2c0,2.1-0.3,3.8-1,5.2c-0.7,1.4-1.6,2.5-2.7,3.3c-1.2,0.8-2.5,1.4-4.1,1.8c-1.6,0.3-3.3,0.5-5.2,0.5h-5.7
		v13.7h-7.7V108.9z M145.7,123.8h5.2c0.7,0,1.4-0.1,2-0.2c0.6-0.1,1.2-0.4,1.7-0.7c0.5-0.3,0.9-0.7,1.2-1.3c0.3-0.5,0.5-1.2,0.5-2.1
		c0-0.9-0.2-1.6-0.6-2.2c-0.4-0.5-0.9-1-1.6-1.3c-0.6-0.3-1.4-0.5-2.2-0.6c-0.8-0.1-1.6-0.1-2.3-0.1h-4V123.8z"/>
</g>
<g>
	<path d="M52,148.9h-3.4v-1.1h8.2v1.1h-3.4v9H52V148.9z"/>
	<path d="M59.4,147.3h1.4v4.5h0c0.2-0.4,0.6-0.7,1-0.9c0.4-0.2,0.9-0.4,1.5-0.4c1.1,0,2.8,0.6,2.8,3.1v4.3h-1.4v-4.1
		c0-1.2-0.5-2.1-1.8-2.1c-0.9,0-1.7,0.6-1.9,1.3c-0.1,0.2-0.1,0.4-0.1,0.6v4.4h-1.4V147.3z"/>
	<path d="M69.7,152.9c0-0.9,0-1.6-0.1-2.3h1.3l0,1.4h0.1c0.4-1,1.2-1.6,2.2-1.6c0.2,0,0.3,0,0.4,0v1.2c-0.1,0-0.3,0-0.5,0
		c-1,0-1.7,0.7-1.9,1.7c0,0.2-0.1,0.4-0.1,0.6v3.9h-1.4V152.9z"/>
	<path d="M77.1,154.5c0,1.8,1.3,2.5,2.7,2.5c1,0,1.7-0.2,2.2-0.4l0.2,0.9c-0.5,0.2-1.4,0.4-2.6,0.4c-2.4,0-3.9-1.5-3.9-3.6
		c0-2.2,1.4-3.9,3.7-3.9c2.6,0,3.3,2.1,3.3,3.4c0,0.3,0,0.5,0,0.6H77.1z M81.4,153.6c0-0.8-0.4-2.1-2-2.1c-1.5,0-2.1,1.2-2.2,2.1
		H81.4z"/>
	<path d="M90.2,157.9l-0.1-0.9h0c-0.4,0.6-1.3,1.1-2.4,1.1c-1.6,0-2.4-1-2.4-2.1c0-1.7,1.7-2.7,4.8-2.7v-0.1c0-0.6-0.2-1.7-1.8-1.7
		c-0.7,0-1.5,0.2-2.1,0.5l-0.3-0.9c0.7-0.4,1.6-0.6,2.6-0.6c2.4,0,3,1.5,3,3v2.7c0,0.6,0,1.2,0.1,1.7H90.2z M90,154.2
		c-1.6,0-3.4,0.2-3.4,1.6c0,0.9,0.6,1.3,1.4,1.3c1,0,1.7-0.6,1.9-1.2c0-0.1,0.1-0.3,0.1-0.4V154.2z"/>
	<path d="M96.6,148.6v2.1h2.1v1h-2.1v3.9c0,0.9,0.3,1.4,1.1,1.4c0.4,0,0.7,0,0.8-0.1l0.1,1c-0.3,0.1-0.7,0.2-1.3,0.2
		c-0.7,0-1.2-0.2-1.6-0.6c-0.4-0.4-0.6-1-0.6-1.9v-3.9h-1.2v-1h1.2v-1.7L96.6,148.6z"/>
	<path d="M106.2,156.3c0.6,0.4,1.6,0.7,2.6,0.7c1.5,0,2.3-0.7,2.3-1.7c0-0.9-0.6-1.5-2.1-2c-1.8-0.6-2.9-1.4-2.9-2.9
		c0-1.6,1.4-2.7,3.6-2.7c1.1,0,2,0.2,2.4,0.5l-0.4,1.1c-0.4-0.2-1.1-0.5-2.1-0.5c-1.5,0-2.1,0.8-2.1,1.5c0,0.9,0.7,1.4,2.2,1.9
		c1.9,0.7,2.8,1.5,2.8,3c0,1.6-1.3,2.9-3.9,2.9c-1.1,0-2.2-0.3-2.8-0.6L106.2,156.3z"/>
	<path d="M115.7,147.3h1.4v4.5h0c0.2-0.4,0.6-0.7,1-0.9c0.4-0.2,0.9-0.4,1.5-0.4c1.1,0,2.8,0.6,2.8,3.1v4.3H121v-4.1
		c0-1.2-0.5-2.1-1.8-2.1c-0.9,0-1.7,0.6-1.9,1.3c-0.1,0.2-0.1,0.4-0.1,0.6v4.4h-1.4V147.3z"/>
	<path d="M130.4,157.9l-0.1-0.9h0c-0.4,0.6-1.3,1.1-2.4,1.1c-1.6,0-2.4-1-2.4-2.1c0-1.7,1.7-2.7,4.8-2.7v-0.1c0-0.6-0.2-1.7-1.8-1.7
		c-0.7,0-1.5,0.2-2.1,0.5l-0.3-0.9c0.7-0.4,1.6-0.6,2.6-0.6c2.4,0,3,1.5,3,3v2.7c0,0.6,0,1.2,0.1,1.7H130.4z M130.2,154.2
		c-1.6,0-3.4,0.2-3.4,1.6c0,0.9,0.6,1.3,1.4,1.3c1,0,1.7-0.6,1.9-1.2c0-0.1,0.1-0.3,0.1-0.4V154.2z"/>
	<path d="M135.1,152.9c0-0.9,0-1.6-0.1-2.3h1.3l0,1.4h0.1c0.4-1,1.2-1.6,2.2-1.6c0.2,0,0.3,0,0.4,0v1.2c-0.1,0-0.3,0-0.5,0
		c-1,0-1.7,0.7-1.9,1.7c0,0.2-0.1,0.4-0.1,0.6v3.9h-1.4V152.9z"/>
	<path d="M143.4,148.6c0,0.4-0.3,0.8-0.9,0.8c-0.5,0-0.9-0.4-0.9-0.8c0-0.5,0.4-0.8,0.9-0.8C143,147.8,143.4,148.2,143.4,148.6z
		 M141.8,157.9v-7.2h1.4v7.2H141.8z"/>
	<path d="M146.8,152.6c0-0.7,0-1.4-0.1-2h1.3l0.1,1.2h0c0.4-0.7,1.3-1.4,2.6-1.4c1.1,0,2.8,0.6,2.8,3.1v4.3h-1.4v-4.2
		c0-1.2-0.5-2.1-1.8-2.1c-1,0-1.7,0.6-1.9,1.3c-0.1,0.2-0.1,0.4-0.1,0.6v4.3h-1.4V152.6z"/>
	<path d="M164.1,150.7c0,0.5-0.1,1.1-0.1,2v4.2c0,1.7-0.4,2.7-1.1,3.3c-0.8,0.7-1.9,0.9-2.9,0.9c-1,0-2-0.2-2.6-0.6l0.4-1
		c0.5,0.3,1.3,0.6,2.3,0.6c1.5,0,2.6-0.7,2.6-2.5v-0.8h0c-0.4,0.7-1.3,1.2-2.5,1.2c-2,0-3.4-1.5-3.4-3.5c0-2.4,1.8-3.8,3.6-3.8
		c1.4,0,2.1,0.7,2.5,1.3h0l0.1-1.1H164.1z M162.6,153.5c0-0.2,0-0.4-0.1-0.6c-0.3-0.8-1-1.4-2-1.4c-1.4,0-2.4,1.1-2.4,2.7
		c0,1.4,0.8,2.6,2.3,2.6c0.9,0,1.7-0.5,2-1.3c0.1-0.2,0.1-0.5,0.1-0.7V153.5z"/>
</g>
<g>
	<g>
		<path class="st4" d="M108.8,46.6l14.4,8.3l-14.4,8.3V46.6 M115,75.2c-2.1,0.2-4.2,0-6.2-0.5V64.5L115,75.2z M130.6,43.4
			c0.2,0.3,0.5,0.7,0.7,1.1c0.9,1.5,1.5,3,2,4.6l-8.9,5.1L130.6,43.4z M94.8,45.9c0.9-1.9,2.1-3.7,3.6-5.3l9.2,5.3H94.8z"/>
		<g>
			<path class="st1" d="M119,80.4C134,77.2,143,61.7,138.4,47l-29,16.8L119,80.4"/>
		</g>
		<path class="st1" d="M126.6,32.3c-10.8-6.2-24.2-3.9-32.3,4.9L123.4,54l9.6-16.6C131.2,35.5,129,33.7,126.6,32.3"/>
		<g>
			<path class="st1" d="M100.5,77.5c2.4,1.4,4.9,2.3,7.4,2.9V46.8H88.7C84.9,58.3,89.6,71.2,100.5,77.5"/>
		</g>
	</g>
	
		<rect x="118.1" y="48.7" transform="matrix(0.8656 -0.5007 0.5007 0.8656 -17.2344 80.8338)" class="st1" width="47.7" height="47.7"/>
	<circle class="st3" cx="142" cy="72.5" r="20.7"/>
	<g>
		<path class="st4" d="M155,66.3h-0.8v9.1c0,1.4-0.8,2.7-2.5,2.7h-16.3v0.4c0,1.3,1.4,2.5,2.9,2.5h12.5l4.8,2.8l-0.7-2.8h0.2
			c1.5,0,2.1-1.3,2.1-2.5V68.4C157.2,67.2,156.5,66.3,155,66.3z"/>
		<path class="st4" d="M149.3,59.9h-18.9c-1.7,0-3.6,1.5-3.6,2.9v11.5c0,1.3,1.6,2.3,3.2,2.4l-1,3.8l6.5-3.8h13.8
			c1.7,0,3.2-1,3.2-2.4V65v-2.2C152.5,61.4,150.9,59.9,149.3,59.9z M133.2,69.6c-0.9,0-1.7-0.8-1.7-1.7s0.8-1.7,1.7-1.7
			c0.9,0,1.7,0.8,1.7,1.7S134.2,69.6,133.2,69.6z M139.6,69.6c-0.9,0-1.7-0.8-1.7-1.7s0.8-1.7,1.7-1.7s1.7,0.8,1.7,1.7
			S140.6,69.6,139.6,69.6z M146,69.6c-0.9,0-1.7-0.8-1.7-1.7s0.8-1.7,1.7-1.7c0.9,0,1.7,0.8,1.7,1.7S147,69.6,146,69.6z"/>
	</g>
</g>
<g>
	<path class="st4" d="M64.6,170.8l0.4,1.8c0.1,0.5,0.2,0.9,0.3,1.4h0c0.1-0.5,0.2-1,0.3-1.4l0.5-1.8h1.1l0.4,1.8
		c0.1,0.5,0.2,1,0.3,1.5h0c0.1-0.5,0.2-1,0.3-1.5l0.4-1.7h1.3l-1.3,4.4h-1.3l-0.4-1.5c-0.1-0.4-0.2-0.8-0.3-1.4h0
		c-0.1,0.5-0.2,1-0.3,1.4l-0.4,1.5h-1.3l-1.3-4.4H64.6z"/>
	<path class="st4" d="M72.5,170.8l0.4,1.8c0.1,0.5,0.2,0.9,0.3,1.4h0c0.1-0.5,0.2-1,0.3-1.4l0.5-1.8H75l0.4,1.8
		c0.1,0.5,0.2,1,0.3,1.5h0c0.1-0.5,0.2-1,0.3-1.5l0.4-1.7h1.3l-1.3,4.4h-1.3l-0.4-1.5c-0.1-0.4-0.2-0.8-0.3-1.4h0
		c-0.1,0.5-0.2,1-0.3,1.4l-0.4,1.5h-1.3l-1.3-4.4H72.5z"/>
	<path class="st4" d="M80.4,170.8l0.4,1.8c0.1,0.5,0.2,0.9,0.3,1.4h0c0.1-0.5,0.2-1,0.3-1.4l0.5-1.8h1.1l0.4,1.8
		c0.1,0.5,0.2,1,0.3,1.5h0c0.1-0.5,0.2-1,0.3-1.5l0.4-1.7h1.3l-1.3,4.4H83l-0.4-1.5c-0.1-0.4-0.2-0.8-0.3-1.4h0
		c-0.1,0.5-0.2,1-0.3,1.4l-0.4,1.5h-1.3l-1.3-4.4H80.4z"/>
	<path class="st4" d="M86.6,174.5c0-0.5,0.3-0.8,0.8-0.8c0.5,0,0.8,0.3,0.8,0.8c0,0.5-0.3,0.8-0.8,0.8C87,175.3,86.6,175,86.6,174.5
		z"/>
	<path class="st4" d="M93.3,175.1c-0.2,0.1-0.7,0.2-1.2,0.2c-1.4,0-2.3-0.9-2.3-2.2c0-1.3,0.9-2.3,2.5-2.3c0.4,0,0.8,0.1,1,0.2
		l-0.2,1c-0.2-0.1-0.4-0.1-0.8-0.1c-0.7,0-1.2,0.5-1.2,1.2c0,0.8,0.5,1.2,1.2,1.2c0.3,0,0.6-0.1,0.8-0.1L93.3,175.1z"/>
	<path class="st4" d="M96.3,169.6c0,0.4-0.3,0.7-0.7,0.7c-0.4,0-0.7-0.3-0.7-0.7c0-0.4,0.3-0.7,0.7-0.7S96.3,169.2,96.3,169.6z
		 M94.9,175.2v-4.4h1.4v4.4H94.9z"/>
	<path class="st4" d="M98.3,172.3c0-0.6,0-1.1,0-1.4h1.2l0,0.8h0c0.2-0.6,0.8-0.9,1.2-0.9c0.1,0,0.2,0,0.3,0v1.3c-0.1,0-0.2,0-0.4,0
		c-0.5,0-0.8,0.3-0.9,0.7c0,0.1,0,0.2,0,0.3v2.2h-1.4V172.3z"/>
	<path class="st4" d="M105.8,175.1c-0.2,0.1-0.7,0.2-1.2,0.2c-1.4,0-2.3-0.9-2.3-2.2c0-1.3,0.9-2.3,2.5-2.3c0.4,0,0.8,0.1,1,0.2
		l-0.2,1c-0.2-0.1-0.4-0.1-0.8-0.1c-0.7,0-1.2,0.5-1.2,1.2c0,0.8,0.5,1.2,1.2,1.2c0.3,0,0.6-0.1,0.8-0.1L105.8,175.1z"/>
	<path class="st4" d="M107.5,168.8h1.4v6.4h-1.4V168.8z"/>
	<path class="st4" d="M110.6,174.5c0-0.5,0.3-0.8,0.8-0.8c0.5,0,0.8,0.3,0.8,0.8c0,0.5-0.3,0.8-0.8,0.8
		C111,175.3,110.6,175,110.6,174.5z"/>
	<path class="st4" d="M114,168.8h1.4v6.4H114V168.8z"/>
	<path class="st4" d="M121.5,173.8c0,0.6,0,1,0,1.4h-1.2l-0.1-0.6h0c-0.2,0.3-0.6,0.7-1.4,0.7c-0.9,0-1.5-0.6-1.5-1.9v-2.6h1.4v2.4
		c0,0.6,0.2,1,0.7,1c0.4,0,0.6-0.3,0.7-0.5c0-0.1,0-0.2,0-0.3v-2.6h1.4V173.8z"/>
	<path class="st4" d="M123.1,175.6l1.9-6.5h0.9l-1.9,6.5H123.1z"/>
	<path class="st4" d="M127.3,172.2c0-0.5,0-1,0-1.4h1.2l0.1,0.6h0c0.2-0.3,0.6-0.7,1.3-0.7c0.6,0,1,0.3,1.2,0.7h0
		c0.2-0.2,0.4-0.4,0.6-0.5c0.2-0.1,0.5-0.2,0.8-0.2c0.8,0,1.5,0.6,1.5,1.9v2.6h-1.3v-2.4c0-0.6-0.2-1-0.6-1c-0.3,0-0.5,0.2-0.6,0.5
		c0,0.1-0.1,0.2-0.1,0.4v2.6H130v-2.5c0-0.6-0.2-0.9-0.6-0.9c-0.4,0-0.6,0.3-0.6,0.5c0,0.1-0.1,0.2-0.1,0.3v2.6h-1.3V172.2z"/>
	<path class="st4" d="M137.4,169.6c0,0.4-0.3,0.7-0.7,0.7c-0.4,0-0.7-0.3-0.7-0.7c0-0.4,0.3-0.7,0.7-0.7S137.4,169.2,137.4,169.6z
		 M136,175.2v-4.4h1.4v4.4H136z"/>
	<path class="st4" d="M139.3,174c0.3,0.2,0.8,0.3,1.2,0.3c0.4,0,0.6-0.1,0.6-0.4c0-0.2-0.1-0.3-0.6-0.5c-0.9-0.3-1.3-0.8-1.2-1.3
		c0-0.8,0.7-1.4,1.8-1.4c0.5,0,1,0.1,1.2,0.3l-0.2,0.9c-0.2-0.1-0.6-0.3-1-0.3c-0.3,0-0.5,0.1-0.5,0.4c0,0.2,0.2,0.3,0.7,0.5
		c0.8,0.3,1.2,0.7,1.2,1.4c0,0.8-0.6,1.4-1.9,1.4c-0.6,0-1.1-0.1-1.4-0.3L139.3,174z"/>
	<path class="st4" d="M144.1,172.3c0-0.6,0-1.1,0-1.5h1.2l0.1,0.6h0c0.3-0.5,0.8-0.7,1.5-0.7c1,0,1.8,0.8,1.8,2.2c0,1.6-1,2.4-2,2.4
		c-0.5,0-0.9-0.2-1.1-0.5h0v2.2h-1.4V172.3z M145.5,173.3c0,0.1,0,0.2,0,0.3c0.1,0.4,0.4,0.6,0.8,0.6c0.6,0,0.9-0.5,0.9-1.2
		c0-0.7-0.3-1.2-0.9-1.2c-0.4,0-0.7,0.3-0.8,0.7c0,0.1,0,0.2,0,0.2V173.3z"/>
</g>
<line class="st5" x1="77.6" y1="164.1" x2="134.5" y2="164.1"/>
</svg>
