<?xml version="1.0" standalone="no"?>
<!DOCTYPE svg PUBLIC "-//W3C//DTD SVG 1.1//EN" "http://www.w3.org/Graphics/SVG/1.1/DTD/svg11.dtd">
<svg version="1.1" id="Layer_1" xmlns="http://www.w3.org/2000/svg" xmlns:xlink="http://www.w3.org/1999/xlink" x="0px" y="0px"
         width="225.994px" height="45.258px" viewBox="0 0 225.994 45.258" enable-background="new 0 0 225.994 45.258"
         xml:space="preserve">
    <g>
        <g>
            <path fill="#FFFFFF" d="M28.993,18.11l22.685,5.632c3.948-1.541,6.318-3.505,6.318-5.632V9.052C57.996,4.058,45.011,0,28.993,0
                C12.979,0,0,4.058,0,9.052v9.058c0,4.995,12.979,9.05,28.993,9.05V18.11z"/>
            <path fill="#FFFFFF" d="M51.676,32.796L28.993,27.16v9.051l22.683,5.638c3.95-1.549,6.322-3.504,6.322-5.638V27.16
                C57.999,29.292,55.626,31.25,51.676,32.796"/>
            <path fill="#FFFFFF" d="M0,27.16v9.052c0,4.996,12.979,9.047,28.993,9.047v-9.047C12.979,36.211,0,32.155,0,27.16"/>
            <path fill="#FFFFFF" d="M82.884,35.384c-7.082,0-12.339-5.467-12.339-12.378V22.94c0-6.837,5.154-12.443,12.546-12.443
                c4.536,0,7.253,1.515,9.487,3.713l-3.368,3.882c-1.857-1.685-3.749-2.715-6.156-2.715c-4.055,0-6.975,3.368-6.975,7.493v0.069
                c0,4.124,2.849,7.562,6.975,7.562c2.751,0,4.435-1.1,6.324-2.82l3.367,3.402C90.273,33.734,87.525,35.384,82.884,35.384"/>
            <path fill="#FFFFFF" d="M107.321,27.546c-0.894-0.416-2.064-0.688-3.334-0.688c-2.234,0-3.611,0.894-3.611,2.544v0.068
                c0,1.406,1.171,2.231,2.852,2.231c2.441,0,4.093-1.335,4.093-3.229V27.546z M107.215,34.968v-1.99
                c-1.269,1.408-3.021,2.337-5.568,2.337c-3.469,0-6.323-1.994-6.323-5.637v-0.069c0-4.023,3.056-5.879,7.422-5.879
                c1.859,0,3.2,0.312,4.506,0.756v-0.311c0-2.162-1.342-3.368-3.955-3.368c-1.993,0-3.4,0.379-5.086,0.997l-1.309-3.986
                c2.03-0.896,4.023-1.479,7.15-1.479c5.708,0,8.216,2.957,8.216,7.943v10.686H107.215z"/>
        </g>
        <polygon fill="#FFFFFF" points="128.629,34.968 123.816,27.443 121.994,29.368 121.994,34.968 116.772,34.968 116.772,9.876
            121.994,9.876 121.994,23.25 128.115,16.547 134.37,16.547 127.358,23.797 134.609,34.968  "/>
        <g>
            <path fill="#FFFFFF" d="M144.469,20.396c-2.166,0-3.578,1.547-3.989,3.917h7.872C148.041,21.975,146.666,20.396,144.469,20.396
                 M153.37,27.583h-12.819c0.514,2.371,2.164,3.605,4.504,3.605c1.752,0,3.022-0.552,4.465-1.89l2.994,2.647
                c-1.723,2.132-4.195,3.438-7.529,3.438c-5.535,0-9.628-3.885-9.628-9.521v-0.07c0-5.261,3.75-9.591,9.112-9.591
                c6.149,0,8.97,4.779,8.97,10.005v0.065C153.438,26.792,153.405,27.099,153.37,27.583"/>
            <path fill="#FFFFFF" d="M171.551,19.329c0-2.371-1.647-3.641-4.296-3.641h-4.09v7.358h4.193c2.646,0,4.192-1.586,4.192-3.646
                V19.329z M167.184,27.751h-4.019v7.217h-5.292v-24.06h9.83c5.738,0,9.209,3.403,9.209,8.321v0.065
                C176.912,24.864,172.58,27.751,167.184,27.751"/>
        </g>
        <polygon fill="#FFFFFF" points="195.885,34.968 195.885,25.307 186.122,25.307 186.122,34.968 180.831,34.968 180.831,10.908
            186.122,10.908 186.122,20.43 195.885,20.43 195.885,10.908 201.176,10.908 201.176,34.968     "/>
        <g>
            <path fill="#FFFFFF" d="M220.63,19.329c0-2.371-1.65-3.641-4.295-3.641h-4.091v7.358h4.191c2.649,0,4.194-1.586,4.194-3.646
                V19.329z M216.268,27.751h-4.023v7.217h-5.292v-24.06h9.829c5.737,0,9.213,3.403,9.213,8.321v0.065
                C225.994,24.864,221.662,27.751,216.268,27.751"/>
        </g>
    </g>
</svg>
